<svg width="536" height="508" viewBox="0 0 536 508" fill="none" xmlns="http://www.w3.org/2000/svg">
<path d="M267.55 3.5C413.252 3.50011 531.547 118.361 531.552 260.253L531.538 262.909C530.369 375.223 455.107 470.164 351.133 503.86L350.921 503.93L350.702 503.971C343.347 505.357 337.677 503.944 333.834 500.534C330.085 497.207 328.661 492.488 328.661 488.382C328.661 484.197 328.736 475.267 328.812 463.189C328.887 451.097 328.963 435.815 328.963 418.883C328.963 396.075 320.941 381.729 312.537 374.663L306.261 369.386L314.413 368.504C343.231 365.387 372.127 358.555 393.807 340.914C415.298 323.427 430.237 294.862 430.237 247.026C430.237 220.733 420.804 199.251 405.129 182.251L404.378 181.444L402.813 179.781L403.704 177.678C406.131 171.958 414.543 147.965 401.827 115.118C401.343 115.061 400.742 115.006 400.023 114.974C397.501 114.861 393.505 115.008 387.934 116.15C376.787 118.436 359.307 124.715 334.73 140.911L333.414 141.777L331.893 141.367C311.39 135.838 289.396 133.058 267.549 132.962C246.374 133.055 225.085 135.675 205.171 140.865L203.247 141.375L201.727 141.786L200.41 140.92C175.803 124.723 158.3 118.444 147.139 116.158C141.561 115.016 137.56 114.87 135.034 114.982C134.313 115.015 133.711 115.069 133.226 115.127C120.543 147.977 128.956 171.967 131.386 177.685L132.279 179.786L130.715 181.45C114.623 198.581 104.82 220.33 104.82 247.034C104.82 294.754 119.731 323.343 141.183 340.895C162.821 358.598 191.655 365.533 220.393 368.71L228.463 369.603L222.274 374.857C215.576 380.543 209.171 390.892 206.934 406.553L206.657 408.488L204.865 409.268C197.197 412.604 183.427 417.265 168.402 415.959C153.15 414.634 136.885 407.169 124.663 386.807L124.641 386.77L124.62 386.732V386.733L124.621 386.734V386.735C124.621 386.735 124.62 386.734 124.619 386.732C124.616 386.727 124.61 386.716 124.601 386.699C124.582 386.666 124.549 386.611 124.503 386.535C124.412 386.383 124.269 386.149 124.073 385.844C123.683 385.233 123.085 384.341 122.285 383.255C120.682 381.079 118.28 378.152 115.111 375.177C108.769 369.225 99.5467 363.252 87.5979 362.407C87.5662 362.407 87.5265 362.407 87.4797 362.407C87.3259 362.408 87.0944 362.412 86.803 362.422C86.2166 362.442 85.4031 362.486 84.5002 362.582C82.5566 362.789 80.7195 363.191 79.6721 363.771C79.5936 363.814 79.5288 363.854 79.4758 363.889C79.6899 364.376 80.2705 365.27 81.6555 366.592C82.9968 367.872 84.9509 369.418 87.7043 371.26C87.7075 371.261 87.711 371.263 87.7141 371.265C87.8815 371.349 88.1105 371.468 88.3958 371.625C88.9669 371.94 89.7635 372.408 90.7405 373.058C92.6949 374.357 95.3709 376.38 98.4114 379.344C104.311 385.095 111.541 394.348 117.541 408.643L118.118 410.042L118.156 410.137L118.187 410.226L118.206 410.28C118.227 410.337 118.263 410.435 118.317 410.569C118.423 410.838 118.597 411.255 118.847 411.794C119.348 412.873 120.153 414.437 121.341 416.288C123.717 419.99 127.61 424.818 133.64 429.211C145.587 437.915 166.476 445.303 201.913 437.812L206.114 436.923L206.137 441.217C206.249 462.321 206.49 482.345 206.49 488.386C206.49 492.493 205.028 497.174 201.296 500.484C197.475 503.874 191.85 505.326 184.574 504.014L184.343 503.972L184.118 503.899C79.2659 469.971 3.552 373.767 3.552 260.253C3.55223 118.353 121.861 3.5 267.55 3.5ZM131.682 115.392C131.683 115.391 131.685 115.391 131.687 115.391C131.688 115.39 131.689 115.39 131.69 115.39C131.686 115.391 131.683 115.391 131.682 115.392ZM403.365 115.382C403.367 115.382 403.368 115.382 403.369 115.383C403.368 115.382 403.365 115.381 403.361 115.38C403.362 115.38 403.363 115.382 403.365 115.382Z" stroke="url(#paint0_linear_225_14)" stroke-width="7"/>
<defs>
<linearGradient id="paint0_linear_225_14" x1="267.552" y1="7" x2="267.552" y2="501" gradientUnits="userSpaceOnUse">
<stop stop-color="#006FFF"/>
<stop offset="1" stop-color="#006FFF" stop-opacity="0"/>
</linearGradient>
</defs>
</svg>
