<svg width="24" height="24" viewBox="0 0 24 24" fill="none" xmlns="http://www.w3.org/2000/svg">
<path d="M10 20.568C6.571 21.725 3.714 20.568 2 17" stroke="#FDFDFD" stroke-width="1.5" stroke-linecap="round" stroke-linejoin="round"/>
<path d="M10 22V18.758C10 18.16 10.184 17.64 10.48 17.17C10.684 16.848 10.544 16.39 10.177 16.29C7.134 15.452 5 14.107 5 9.64503C5 8.48503 5.38 7.39503 6.048 6.44503C6.214 6.20903 6.298 6.09103 6.318 5.98503C6.338 5.87703 6.303 5.73803 6.233 5.45803C5.95 4.32203 5.969 3.11503 6.393 2.02803C6.393 2.02803 7.27 1.74103 9.267 2.98803C9.723 3.27303 9.951 3.41603 10.152 3.44803C10.353 3.48003 10.621 3.41303 11.157 3.27903C11.9234 3.08902 12.7104 2.9953 13.5 3.00003C14.2895 2.99666 15.0765 3.0907 15.843 3.28003C16.379 3.41403 16.648 3.48003 16.849 3.44903C17.049 3.41703 17.277 3.27403 17.733 2.98903C19.73 1.74203 20.607 2.02903 20.607 2.02903C21.031 3.11603 21.05 4.32303 20.767 5.45903C20.697 5.73903 20.663 5.87903 20.683 5.98503C20.703 6.09103 20.786 6.21003 20.952 6.44603C21.62 7.39603 22 8.48603 22 9.64603C22 14.108 19.866 15.453 16.823 16.289C16.456 16.39 16.316 16.848 16.52 17.169C16.816 17.639 17 18.159 17 18.758V22" stroke="#FDFDFD" stroke-width="1.5" stroke-linecap="round" stroke-linejoin="round"/>
</svg>
