<svg width="24" height="24" viewBox="0 0 24 24" fill="none" xmlns="http://www.w3.org/2000/svg">
<path d="M12.326 9.5H11.5C10.557 9.5 10.086 9.5 9.793 9.793C9.5 10.086 9.5 10.557 9.5 11.5V20C9.5 20.943 9.5 21.414 9.793 21.707C10.086 22 10.557 22 11.5 22H12C12.943 22 13.414 22 13.707 21.707C14 21.414 14 20.943 14 20V16.5C14 14.843 14.528 13.5 16.088 13.5C16.868 13.5 17.5 14.172 17.5 15V19.5C17.5 20.443 17.5 20.914 17.793 21.207C18.086 21.5 18.557 21.5 19.5 21.5H19.999C20.941 21.5 21.413 21.5 21.706 21.207C21.998 20.914 21.999 20.443 21.999 19.501L22 14C22 11.514 19.636 9.5 17.297 9.5C15.965 9.5 14.777 10.152 14 11.173C14 10.543 14 10.228 13.863 9.994C13.7764 9.84593 13.6531 9.72265 13.505 9.636C13.271 9.499 12.956 9.499 12.326 9.499M4.5 9.5H4C3.057 9.5 2.586 9.5 2.293 9.793C2 10.086 2 10.557 2 11.5V20C2 20.943 2 21.414 2.293 21.707C2.586 22 3.057 22 4 22H4.5C5.443 22 5.914 22 6.207 21.707C6.5 21.414 6.5 20.943 6.5 20V11.5C6.5 10.557 6.5 10.086 6.207 9.793C5.914 9.5 5.443 9.5 4.5 9.5ZM6.5 4.25C6.5 4.84674 6.26295 5.41903 5.84099 5.84099C5.41903 6.26295 4.84674 6.5 4.25 6.5C3.65326 6.5 3.08097 6.26295 2.65901 5.84099C2.23705 5.41903 2 4.84674 2 4.25C2 3.65326 2.23705 3.08097 2.65901 2.65901C3.08097 2.23705 3.65326 2 4.25 2C4.84674 2 5.41903 2.23705 5.84099 2.65901C6.26295 3.08097 6.5 3.65326 6.5 4.25Z" stroke="#FDFDFD" stroke-width="1.5" stroke-linecap="round" stroke-linejoin="round"/>
</svg>
