<svg width="130" height="38" viewBox="0 0 130 38" fill="none" xmlns="http://www.w3.org/2000/svg">
<path d="M0.949635 0.173064L1.34948 0.271958C1.4661 0.206029 1.55773 0.173064 1.62438 0.173064C5.73946 1.12904 9.12149 1.79657 11.7705 2.17567C11.8871 2.10974 11.9787 2.07677 12.0454 2.07677V2.17567L11.9454 2.34873H12.1453V2.17567H12.4452L12.7201 2.34873H12.8201C13.0033 2.34873 13.095 2.32401 13.095 2.27456C13.7614 2.34049 14.1446 2.43114 14.2445 2.54652L15.1192 2.27456C16.1854 2.4229 16.8852 2.63717 17.2184 2.91737H17.6932C17.6932 2.60421 18.0764 2.44763 18.8428 2.44763C18.8594 2.33225 18.9261 2.27456 19.0427 2.27456H19.1426V2.34873C19.076 2.48059 19.0427 2.57948 19.0427 2.64541H19.3176V2.27456H19.5175C19.6674 2.27456 19.7924 2.29928 19.8923 2.34873L20.0923 2.27456L20.4671 2.34873C20.6004 2.29928 20.7004 2.27456 20.767 2.27456L20.9419 2.34873L21.1419 2.27456C21.2585 2.32401 21.3834 2.34873 21.5167 2.34873C21.65 2.29928 21.75 2.27456 21.8166 2.27456C21.8499 2.45587 22.0748 2.54652 22.4913 2.54652V2.74431H22.2914V2.8432H22.5663C22.5663 2.77727 22.5996 2.74431 22.6663 2.74431C22.6829 2.85968 22.7496 2.91737 22.8662 2.91737C23.0495 2.91737 23.3077 2.85968 23.6409 2.74431C23.7575 2.81024 23.8492 2.8432 23.9158 2.8432C24.3323 2.71134 24.6155 2.64541 24.7655 2.64541H24.9654L25.0654 3.11516H24.9654C24.8321 3.11516 24.7655 3.02451 24.7655 2.8432H24.6905C24.6905 3.02451 24.6239 3.11516 24.4906 3.11516C24.4906 2.9833 24.4239 2.91737 24.2907 2.91737H24.1157L24.1907 3.11516L23.9158 3.31295C23.7159 3.18109 23.5576 3.11516 23.441 3.11516C23.3743 3.29647 23.1828 3.38712 22.8662 3.38712L22.6663 3.31295C22.433 3.42832 22.1831 3.48601 21.9166 3.48601H21.3418V3.6838H21.9915C22.1248 3.70028 22.1915 3.76621 22.1915 3.88159C22.1248 3.88159 22.0915 3.90631 22.0915 3.95576C22.0249 3.95576 21.9332 3.93103 21.8166 3.88159C20.7837 4.12882 20.0506 4.25244 19.6175 4.25244L19.5175 4.05465L19.1426 4.25244C19.0094 4.18651 18.9094 4.15355 18.8428 4.15355C18.7761 4.2854 18.7428 4.3843 18.7428 4.45023H18.6428L18.3679 4.25244H18.268C18.1847 4.25244 18.0264 4.40902 17.7932 4.72219H17.9931V4.91997C17.7265 4.91997 17.5932 4.97766 17.5932 5.09304C17.6765 5.15897 17.8348 5.19193 18.0681 5.19193V5.09304H18.268C18.4013 5.126 18.4679 5.19193 18.4679 5.29083C18.4679 5.42268 18.4013 5.48861 18.268 5.48861C18.2013 5.48861 18.168 5.45565 18.168 5.38972L17.9931 5.48861C17.9431 5.48861 17.7515 5.45565 17.4183 5.38972C17.285 5.45565 17.1851 5.48861 17.1184 5.48861L16.9435 5.38972C16.6769 5.45565 16.452 5.5463 16.2687 5.66168H16.1688V5.48861C16.0688 5.48861 15.9105 5.6452 15.694 5.95836L15.2941 5.76057H15.1192V5.85947C15.3691 5.85947 15.494 6.01605 15.494 6.32921L15.694 6.23032H15.7939V6.42811C15.9439 6.29625 16.0688 6.23032 16.1688 6.23032H16.4437C16.4437 5.85123 16.5436 5.66168 16.7436 5.66168H16.8435C16.9601 5.69464 17.0185 5.76057 17.0185 5.85947C16.9685 5.85947 16.9435 5.89243 16.9435 5.95836L16.7436 5.85947L16.5436 5.95836C16.5436 6.13967 16.7352 6.23032 17.1184 6.23032V6.42811C16.8685 6.49404 16.6436 6.527 16.4437 6.527L16.5436 6.70006C16.2937 6.83192 16.1021 6.89785 15.9689 6.89785C15.8522 6.83192 15.7606 6.79896 15.694 6.79896L15.494 7.09564L15.8689 7.26871L16.3687 7.19454L16.4437 7.3676L16.2687 7.46649C16.2021 7.46649 16.1688 7.43353 16.1688 7.3676L15.9689 7.46649H15.3941C15.1275 7.46649 14.7776 7.43353 14.3445 7.3676L14.1696 7.46649C14.0363 7.40056 13.9363 7.3676 13.8697 7.3676C13.7364 7.3676 13.6697 7.40056 13.6697 7.46649C11.7871 7.46649 8.63001 6.93082 4.19839 5.85947C2.61566 5.51334 1.79098 5.25786 1.72434 5.09304C1.34115 4.89525 1.14956 4.7057 1.14956 4.5244L1.24952 4.05465C1.09958 4.0052 0.841343 3.53546 0.474817 2.64541C0.541458 2.53004 0.574779 2.40642 0.574779 2.27456C0.474817 2.19215 0.316545 1.81306 0.0999616 1.13728V0.939493C0.333205 0.42854 0.61643 0.173064 0.949635 0.173064ZM25.1653 1.78009C25.2819 1.81306 25.3403 1.87899 25.3403 1.97788L24.9654 2.44763H24.6905C24.5572 2.44763 24.4906 2.38994 24.4906 2.27456C24.2407 2.32401 24.0158 2.41466 23.8158 2.54652H23.7159L23.341 2.27456H23.2411L22.9662 2.44763C22.7662 2.44763 22.508 2.38994 22.1915 2.27456C22.0748 2.32401 21.9832 2.34873 21.9166 2.34873V2.17567C22.0499 2.17567 22.1748 2.1427 22.2914 2.07677C22.408 2.1427 22.4997 2.17567 22.5663 2.17567C22.7829 2.17567 23.0411 2.07677 23.341 1.87899H23.5409C23.6576 1.87899 23.7159 1.97788 23.7159 2.17567H23.8158L24.3906 1.87899L24.9654 1.97788C24.9821 1.84602 25.0487 1.78009 25.1653 1.78009ZM26.3149 1.78009H26.6897V1.87899C26.6897 2.01084 26.6231 2.07677 26.4898 2.07677H26.3149C26.1816 2.07677 26.115 2.01084 26.115 1.87899L26.3149 1.78009ZM25.5402 1.87899H25.7401V2.17567H25.5402V1.87899ZM17.3183 2.44763H17.6932V2.54652C17.6932 2.67838 17.6349 2.74431 17.5183 2.74431H17.3183V2.44763ZM19.8923 2.64541L19.9923 2.8432V2.91737H19.6175V3.11516C19.8007 3.11516 20.0256 3.14812 20.2922 3.21405V3.11516L20.0923 2.8432L20.3672 2.64541H20.4671V2.91737L20.767 2.74431H20.842L20.6671 3.01627H21.5167L22.1915 2.8432C22.1915 2.71134 22.1248 2.64541 21.9915 2.64541H21.9166C21.7833 2.6619 21.7166 2.72782 21.7166 2.8432C21.5167 2.8432 21.4168 2.74431 21.4168 2.54652L21.1419 2.74431L20.842 2.54652H20.5671L19.8923 2.64541ZM18.5679 2.8432V2.91737C18.6845 2.91737 18.7428 2.85968 18.7428 2.74431V2.64541C18.6262 2.6619 18.5679 2.72782 18.5679 2.8432ZM25.5402 2.54652C25.6735 2.563 25.7401 2.62893 25.7401 2.74431L25.5402 2.8432C25.4069 2.8432 25.3403 2.77727 25.3403 2.64541L25.5402 2.54652ZM19.0427 2.74431L18.9427 2.91737L19.1426 3.01627C19.2593 3.01627 19.3176 2.95858 19.3176 2.8432C19.2509 2.8432 19.1593 2.81024 19.0427 2.74431ZM17.8931 2.8432V2.91737C17.9098 3.04923 17.9681 3.11516 18.0681 3.11516V3.01627C18.0681 2.90089 18.0097 2.8432 17.8931 2.8432ZM19.7924 3.48601V3.6838C20.1756 3.86511 20.4005 3.95576 20.4671 3.95576H20.5671V3.88159C20.2006 3.61787 19.9423 3.48601 19.7924 3.48601ZM19.0427 3.58491V3.78269H19.3176V3.6838C19.2509 3.6838 19.1593 3.65083 19.0427 3.58491ZM18.0681 3.95576V4.05465H18.4679V3.95576H18.0681ZM16.0688 4.45023V4.5244H16.2687L16.8435 4.45023C16.8435 4.49967 16.8768 4.5244 16.9435 4.5244L17.0185 4.35133V4.25244C16.8685 4.31837 16.552 4.3843 16.0688 4.45023ZM14.1696 4.35133V4.5244H14.4444V4.35133H14.1696ZM20.3672 4.35133H20.6671V4.5244H20.3672V4.35133ZM17.4183 4.5244V4.72219H17.5183C17.6349 4.72219 17.6932 4.65626 17.6932 4.5244H17.4183ZM19.6175 4.45023H19.8923V4.62329H19.6175V4.45023ZM16.5436 4.72219C16.2937 5.00239 16.1688 5.15897 16.1688 5.19193H16.3687C16.3854 5.19193 16.5103 5.15897 16.7436 5.09304L17.2184 5.29083C17.2184 5.15897 17.3183 5.09304 17.5183 5.09304V5.01887C17.0518 5.01887 16.7269 4.91997 16.5436 4.72219ZM20.1922 4.62329H20.2922V4.72219C20.2922 4.85404 20.2256 4.91997 20.0923 4.91997H19.9923V4.82108C20.009 4.68922 20.0756 4.62329 20.1922 4.62329ZM18.6428 4.72219H18.8428C18.8428 4.85404 18.7761 4.91997 18.6428 4.91997H18.4679C18.4846 4.78812 18.5429 4.72219 18.6428 4.72219ZM19.2176 4.72219H19.6175V4.91997H19.2176V4.72219ZM14.4444 4.91997C14.4444 5.00239 14.5444 5.09304 14.7443 5.19193L15.2191 5.09304L15.1192 5.29083H15.2191L15.694 5.19193C15.7106 5.32379 15.7689 5.38972 15.8689 5.38972H15.9689C15.9022 5.27434 15.8689 5.15073 15.8689 5.01887L15.2191 5.09304C15.2191 4.97766 15.1525 4.91997 15.0192 4.91997C15.0192 5.03535 14.9526 5.09304 14.8193 5.09304L14.5444 4.91997H14.4444ZM20.5671 5.09304H20.842V5.29083H20.5671V5.09304ZM14.7443 5.38972C14.7443 5.48861 14.6777 5.61223 14.5444 5.76057C14.6777 5.77705 14.7443 5.84298 14.7443 5.95836H14.1696V6.05725C14.1696 6.18911 14.5194 6.31273 15.2191 6.42811C15.2191 6.49404 15.2441 6.527 15.2941 6.527H15.3941L15.2191 6.23032L15.2941 6.05725C14.9776 5.97484 14.8193 5.87595 14.8193 5.76057V5.66168L14.9193 5.48861L14.7443 5.38972ZM15.3941 5.48861V5.66168H15.694V5.48861H15.3941ZM13.8697 5.58751L13.7697 5.76057H14.0696C14.0696 5.6452 14.0029 5.58751 13.8697 5.58751ZM12.0454 5.66168V5.76057L12.4452 5.85947C12.4452 5.72761 12.3453 5.66168 12.1453 5.66168H12.0454ZM12.6201 5.76057V6.05725H13.02C13.1366 6.05725 13.1949 5.99132 13.1949 5.85947L12.6201 5.76057ZM15.9689 5.66168H16.0688C16.2021 5.69464 16.2687 5.76057 16.2687 5.85947V5.95836H16.1688C16.0355 5.95836 15.9689 5.89243 15.9689 5.76057V5.66168ZM13.3948 5.85947V6.15615C13.5781 6.15615 13.6697 6.18087 13.6697 6.23032L13.8697 6.15615H13.9696V6.32921H14.1696C14.1696 6.18087 13.9113 6.02429 13.3948 5.85947ZM4.39831 6.15615H4.87313V6.32921H4.39831V6.15615ZM4.59823 6.527H4.87313V6.70006C4.87313 6.79896 4.78149 6.89785 4.59823 6.99675H4.49827V6.79896H4.69819V6.70006L4.59823 6.527ZM17.7932 6.527C17.9264 6.54348 17.9931 6.60117 17.9931 6.70006L17.7932 6.79896H17.5932V6.70006C17.6266 6.58469 17.6932 6.527 17.7932 6.527ZM4.69819 7.09564H4.87313C4.87313 7.29343 4.93977 7.67252 5.07305 8.23292L4.59823 8.13403L5.07305 8.50488C5.07305 8.63674 5.00641 8.70267 4.87313 8.70267L4.29835 8.23292C4.41497 7.9692 4.54825 7.83735 4.69819 7.83735V7.76318L4.49827 7.46649V7.26871C4.51493 7.15333 4.58157 7.09564 4.69819 7.09564ZM5.84775 8.03513V8.40599H5.64783V8.23292C5.66449 8.10106 5.73113 8.03513 5.84775 8.03513ZM5.4479 8.60377C5.58119 8.6697 5.68115 8.70267 5.74779 8.70267C5.74779 8.63674 5.78111 8.60377 5.84775 8.60377L6.02268 9.3702L5.92272 9.54327C5.98936 9.67513 6.02268 9.77402 6.02268 9.83995C5.95604 9.83995 5.92272 9.87291 5.92272 9.93884C6.056 9.93884 6.12265 10.0295 6.12265 10.2108V10.5075H6.22261L6.12265 10.9772V11.0761C6.13931 11.1915 6.20595 11.2492 6.32257 11.2492L6.4975 10.6805C6.43086 10.5652 6.39754 10.4745 6.39754 10.4086L6.59746 10.3097H6.69742V10.7794L6.59746 11.2492C6.69742 11.2492 6.79739 11.3481 6.89735 11.5459V11.8178H6.69742C6.69742 11.5871 6.57247 11.4305 6.32257 11.3481L6.22261 11.5459V11.7189C6.33923 12.1804 6.39754 12.4359 6.39754 12.4854C6.39754 12.5513 6.37255 12.5843 6.32257 12.5843C6.48917 13.2765 6.64744 13.6226 6.79739 13.6226V13.4249L6.69742 12.5843H6.79739C6.93067 12.5843 7.05562 13.2435 7.17224 14.5621H6.97232V14.661H7.2722V14.7599C7.2722 14.8259 7.23888 14.8588 7.17224 14.8588C7.30552 15.0566 7.37216 15.2462 7.37216 15.4275C7.30552 15.4275 7.2722 15.4522 7.2722 15.5016C7.40549 15.5016 7.47213 15.6005 7.47213 15.7983H8.22184C8.88825 15.7983 9.94617 15.8642 11.3956 15.9961C13.9613 15.9961 16.7019 15.65 19.6175 14.9577C19.7174 15.0566 20.0673 15.2132 20.6671 15.4275C20.7837 15.823 20.842 16.0373 20.842 16.0703C20.692 16.0703 20.6004 16.2021 20.5671 16.4658L20.842 16.9356C20.842 17.2488 20.6587 17.4053 20.2922 17.4053V17.5042H20.5671V17.6031C20.4671 17.9328 19.6091 18.3366 17.9931 18.8146C17.9931 19.0783 17.4183 19.2101 16.2687 19.2101C16.0355 19.1442 15.9022 19.1113 15.8689 19.1113C15.7523 19.1772 15.6606 19.2101 15.594 19.2101V19.1113C15.1775 19.2926 14.4778 19.3832 13.4948 19.3832V19.309C13.4781 19.3585 13.1533 19.3832 12.5202 19.3832V19.4821C12.7201 19.4821 12.8201 19.548 12.8201 19.6799C12.6201 19.6799 12.3952 19.7129 12.1453 19.7788C11.7955 19.7129 11.5122 19.6799 11.2957 19.6799C11.0291 19.8612 10.6126 19.9848 10.0461 20.0507V20.1496C10.6126 20.1496 10.8958 20.2485 10.8958 20.4463C10.8458 20.4463 10.8208 20.471 10.8208 20.5205L9.67128 20.3474C9.60464 20.3474 9.57132 20.3804 9.57132 20.4463L9.0965 20.3474H8.69665L9.0965 20.7183C8.96322 20.7842 8.86326 20.8172 8.79662 20.8172V21.0891H8.89658C9.0132 21.0232 9.10483 20.9902 9.17147 20.9902L9.27143 21.188L9.17147 21.3858C9.23811 21.5836 9.3714 21.7072 9.57132 21.7567V21.5589C9.50468 21.4435 9.47136 21.3529 9.47136 21.2869H9.57132L9.47136 21.0891V20.9902H9.57132C10.0711 21.1551 10.321 21.2869 10.321 21.3858V22.0534C10.321 22.1028 10.296 22.1275 10.2461 22.1275L10.321 22.3253L10.1461 22.622V23.3637C10.3127 23.3637 10.4377 22.861 10.521 21.8556H10.7209C10.321 26.4541 9.97116 28.7534 9.67128 28.7534C8.45508 32.9234 7.53044 35.0085 6.89735 35.0085C6.89735 35.2062 6.76407 35.3051 6.4975 35.3051C6.43086 35.3051 6.33923 35.2722 6.22261 35.2062C6.00602 35.2062 5.74779 35.2969 5.4479 35.4782C5.38126 35.4782 5.34794 35.4452 5.34794 35.3793L4.87313 35.4782H4.49827L4.19839 35.3051H4.12341L4.19839 35.4782V35.5771H3.24875C3.18211 35.5771 3.14879 35.5441 3.14879 35.4782C3.03217 35.5441 2.94054 35.5771 2.87389 35.5771C2.55735 35.5771 2.39908 35.4535 2.39908 35.2062H1.8243C1.69102 35.2062 1.62438 35.1403 1.62438 35.0085C2.77393 33.0306 3.92349 29.7176 5.07305 25.0696C5.00641 24.9542 4.97309 24.8306 4.97309 24.6988L5.17301 24.5999C5.17301 24.5339 5.13969 24.501 5.07305 24.501C5.20633 23.4296 5.3646 22.5478 5.54787 21.8556C5.48123 21.7402 5.4479 21.6413 5.4479 21.5589C5.49789 21.1798 5.56453 20.9902 5.64783 20.9902L5.54787 20.8172V20.5205C5.54787 20.3392 5.58119 20.2485 5.64783 20.2485L5.54787 19.7788V19.4821L5.64783 18.8146C5.4479 18.8146 5.34794 18.8475 5.34794 18.9135L3.34871 18.6415V18.4437L5.17301 18.6415C5.17301 18.5756 5.20633 18.4767 5.27297 18.3448C5.18967 18.3448 5.08971 18.3778 4.97309 18.4437L2.19915 18.0729V18.1718C2.19915 18.2871 2.35743 18.3448 2.67397 18.3448V18.5426C2.17416 18.5426 1.85762 18.3531 1.72434 17.974C1.39113 17.974 1.19954 17.8833 1.14956 17.702V17.6031L1.62438 17.5042C1.79098 17.5042 2.14084 17.5949 2.67397 17.7762C2.79059 17.7267 2.91555 17.702 3.04883 17.702L3.14879 17.8751C3.21543 17.8751 3.24875 17.8421 3.24875 17.7762C3.63194 17.8256 3.82353 17.8916 3.82353 17.974C3.94015 17.908 4.0651 17.8751 4.19839 17.8751V17.7762C4.19839 17.6608 4.10675 17.6031 3.92349 17.6031L3.72357 17.702C3.52364 17.702 3.08215 17.4795 2.39908 17.0345C1.4661 17.0345 0.791362 16.746 0.374856 16.1692L0 16.0703V15.8972C0.0166603 15.7653 0.0833013 15.6994 0.199923 15.6994H0.374856C0.608099 15.8972 0.833013 15.9961 1.0496 15.9961C1.48276 15.8642 1.86595 15.7983 2.19915 15.7983V15.6994H1.92426C1.94092 15.5676 1.99923 15.5016 2.09919 15.5016C2.36576 15.5016 2.71562 15.5346 3.14879 15.6005L3.34871 15.5016C3.46533 15.5676 3.59029 15.6005 3.72357 15.6005C3.85685 15.5346 3.95681 15.5016 4.02345 15.5016L4.12341 15.6994L4.69819 15.5016C4.79815 15.5676 4.92311 15.6005 5.07305 15.6005C5.07305 15.5346 5.10637 15.5016 5.17301 15.5016L5.07305 15.3286V15.1308L5.27297 14.8588C5.27297 14.727 5.20633 14.661 5.07305 14.661L5.17301 14.1913V13.9935C4.97309 13.9935 4.87313 13.9358 4.87313 13.8204C4.88979 13.6886 4.95643 13.6226 5.07305 13.6226L4.77316 13.054C4.87313 13.054 4.97309 12.9551 5.07305 12.7573C4.87313 12.7079 4.77316 12.5183 4.77316 12.1887C4.80648 12.0733 4.87313 12.0156 4.97309 12.0156C4.92311 11.8178 4.79815 11.6942 4.59823 11.6448C4.59823 11.5129 4.65654 11.2574 4.77316 10.8783C4.65654 10.8783 4.59823 10.8124 4.59823 10.6805V10.5817H4.87313L4.77316 10.4086C4.90645 10.4086 4.97309 10.3427 4.97309 10.2108V10.1119C4.68986 10.1119 4.49827 9.98829 4.39831 9.74105L4.59823 9.44437C4.46495 9.44437 4.39831 9.38668 4.39831 9.27131V8.90046C4.41497 8.7686 4.48161 8.70267 4.59823 8.70267C5.04806 9.01583 5.27297 9.36196 5.27297 9.74105H5.17301L5.27297 9.93884V10.1119L5.07305 10.7794C5.32295 10.6476 5.54787 10.5817 5.74779 10.5817V10.3097C5.48123 10.3097 5.34794 10.1531 5.34794 9.83995H5.4479C5.4479 9.77402 5.41458 9.74105 5.34794 9.74105C5.34794 9.36196 5.4479 9.17241 5.64783 9.17241V9.07352L5.27297 8.70267L5.4479 8.60377ZM4.69819 9.54327V9.64216L4.77316 9.83995C4.90645 9.77402 5.00641 9.74105 5.07305 9.74105V9.54327H4.69819ZM5.34794 10.7794C5.34794 10.8454 5.32295 10.9443 5.27297 11.0761C5.38959 11.0926 5.4479 11.1503 5.4479 11.2492V11.3481L5.34794 11.5459L5.54787 11.6448C5.54787 11.1997 5.58119 10.9443 5.64783 10.8783L5.4479 10.7794H5.34794ZM5.4479 11.7189C5.4479 11.8673 5.41458 11.9991 5.34794 12.1145C5.48123 12.1145 5.54787 12.3288 5.54787 12.7573C5.68115 12.7573 5.74779 12.6996 5.74779 12.5843V12.3865L5.64783 11.7189H5.4479ZM4.97309 12.1887V12.2876C4.98975 12.4194 5.05639 12.4854 5.17301 12.4854H5.27297C5.27297 12.3865 5.17301 12.2876 4.97309 12.1887ZM6.89735 12.1145H6.97232V12.1887C6.97232 12.2876 6.88069 12.3865 6.69742 12.4854V12.2876C6.71408 12.1722 6.78073 12.1145 6.89735 12.1145ZM7.47213 13.326H7.5471C7.68038 13.3589 7.74702 13.4249 7.74702 13.5237V13.6226H7.64706C7.53044 13.6226 7.47213 13.5567 7.47213 13.4249V13.326ZM6.69742 13.7215L6.59746 13.8946V14.1913C6.69742 14.1913 6.79739 14.0924 6.89735 13.8946C6.89735 13.7792 6.83071 13.7215 6.69742 13.7215ZM5.74779 13.8204V14.2902H5.84775V13.8204H5.74779ZM6.69742 14.3891C6.69742 14.455 6.6641 14.5457 6.59746 14.661C6.59746 14.7764 6.6641 14.9989 6.79739 15.3286C6.73074 15.4439 6.69742 15.5346 6.69742 15.6005H6.89735C7.01397 15.6005 7.07228 15.5099 7.07228 15.3286L6.69742 14.661L6.89735 14.3891H6.69742ZM1.24952 15.2297C1.44944 15.3615 1.60771 15.4275 1.72434 15.4275V15.6005C1.39113 15.6005 1.19954 15.5099 1.14956 15.3286C1.2162 15.3286 1.24952 15.2956 1.24952 15.2297ZM0.949635 15.6005H1.24952V15.7983H0.949635V15.6005ZM1.52441 15.9961V16.1692H2.19915C2.19915 16.0538 2.13251 15.9961 1.99923 15.9961H1.52441ZM3.04883 17.2075V17.3064C3.09881 17.3064 3.2904 17.3394 3.62361 17.4053C3.62361 17.2735 3.5653 17.2075 3.44867 17.2075H3.04883ZM4.02345 17.2075L3.92349 17.4053C4.02345 17.4053 4.1484 17.4713 4.29835 17.6031V17.3064C4.23171 17.3064 4.14007 17.2735 4.02345 17.2075ZM4.69819 17.4053C4.69819 17.6031 4.56491 17.702 4.29835 17.702V17.8751L4.77316 17.974H5.34794L4.87313 17.6031L4.97309 17.4053H4.69819ZM18.268 19.1113V19.309L16.5436 19.581V19.3832L17.0185 19.309V19.3832C17.2017 19.2678 17.6182 19.1772 18.268 19.1113ZM13.2949 19.4821H13.3948V19.6799H13.095C13.1283 19.548 13.1949 19.4821 13.2949 19.4821ZM14.6444 19.4821H15.3941V19.6799H14.6444V19.4821ZM9.47136 20.1496L9.67128 20.2485H9.74625V19.9519H9.67128C9.538 19.9848 9.47136 20.0507 9.47136 20.1496ZM9.94617 20.6194C10.0461 20.6194 10.1461 20.743 10.2461 20.9902L10.0461 21.0891C10.0461 21.0067 9.94617 20.8831 9.74625 20.7183L9.94617 20.6194ZM7.84698 21.2869V21.3858C7.86364 21.5012 7.93028 21.5589 8.04691 21.5589V21.2869H7.84698ZM8.69665 22.622V22.8939C8.82994 22.8939 8.89658 22.828 8.89658 22.6962L8.69665 22.622ZM9.3714 22.7951C9.3714 22.894 9.30475 23.0258 9.17147 23.1906H9.47136L9.57132 22.7951H9.3714ZM9.67128 23.0917L9.57132 23.2648H9.67128C9.77124 23.2154 9.89619 23.1906 10.0461 23.1906V23.0917H9.67128ZM8.69665 23.1906V23.4626C8.82994 23.3967 8.9299 23.3637 8.99654 23.3637V23.1906H8.69665ZM9.0965 23.3637V23.4626C9.16314 23.4626 9.25477 23.4956 9.3714 23.5615L9.47136 23.3637H9.0965ZM9.84621 23.5615L9.94617 23.7593C9.87953 23.8582 9.84621 23.9818 9.84621 24.1301C9.94617 24.1301 10.0795 24.1878 10.2461 24.3032L10.321 23.4626H10.2461C10.1294 23.5285 9.99615 23.5615 9.84621 23.5615ZM8.99654 24.229H9.0965V24.3032C9.0965 24.4021 8.99654 24.501 8.79662 24.5999C8.86326 24.7152 8.89658 24.8059 8.89658 24.8718C8.82994 25.0037 8.79662 25.1026 8.79662 25.1685L9.0965 25.3663V25.1685L8.99654 24.6988L9.27143 24.501L9.17147 24.0312L9.3714 23.7593C9.30475 23.7593 9.27143 23.7263 9.27143 23.6604C9.08817 23.6604 8.99654 23.8499 8.99654 24.229ZM8.62168 23.8334V24.229H8.69665C8.69665 24.0807 8.72998 23.9488 8.79662 23.8334H8.62168ZM9.94617 24.5999L10.1461 24.6988V24.4021C10.0128 24.4186 9.94617 24.4845 9.94617 24.5999ZM9.84621 25.2674V25.6383H10.0461V25.2674H9.84621Z" fill="#9E0003"/>
<path d="M25.7401 0.0741705C27.0229 0.947734 28.1475 2.63717 29.1138 5.14249C29.9302 7.10388 30.5466 9.28779 30.9631 11.6942C30.9631 11.7601 30.9298 11.7931 30.8631 11.7931L31.0631 12.5843H30.9631L31.0631 12.7573V13.7957L30.9631 13.9688C31.0797 13.9688 31.1713 14.2655 31.238 14.8588L31.138 15.0319C31.138 15.0813 31.1713 15.1061 31.238 15.1061L31.138 15.5511V15.6252L31.313 16.2433C31.313 16.3093 31.288 16.3422 31.238 16.3422L31.313 16.7625V17.9987C31.313 18.0481 31.288 18.0729 31.238 18.0729L31.313 18.2707V18.4437C31.313 18.8393 31.2546 19.0371 31.138 19.0371C31.138 19.103 31.1713 19.136 31.238 19.136C31.0381 20.949 30.8881 21.8556 30.7882 21.8556L30.8631 22.0286C30.7465 22.9022 30.6049 23.339 30.4383 23.339C30.4883 23.4543 30.5133 23.5368 30.5133 23.5862C30.4633 23.9488 30.38 24.1301 30.2634 24.1301L30.3383 24.3032V24.4763C30.3383 24.5916 30.28 24.6493 30.1634 24.6493L29.9885 24.5504V24.7235H30.1634V24.8224C30.1634 24.8718 30.0468 24.9542 29.8135 25.0696L29.9135 25.2674C29.9135 25.5311 29.7052 25.7866 29.2887 26.0338V26.1327H29.3637C29.4803 26.0668 29.572 26.0338 29.6386 26.0338V26.3058L29.4637 26.5777L29.2887 26.4789H29.1888V26.6519H29.1138V26.4047C29.1138 26.3388 29.1388 26.2481 29.1888 26.1327L29.1138 25.9597C29.1638 25.663 29.2221 25.5146 29.2887 25.5146C29.2887 25.4652 29.2554 25.4405 29.1888 25.4405C29.2554 24.9625 29.347 24.5834 29.4637 24.3032C29.397 24.1878 29.3637 24.0972 29.3637 24.0312C29.2471 24.0972 29.1638 24.1301 29.1138 24.1301L29.1888 24.4763C29.1388 24.9378 28.9972 25.1685 28.7639 25.1685C28.7639 25.2509 28.8472 25.3416 29.0138 25.4405C28.9139 25.7866 28.7056 25.9597 28.3891 25.9597C28.3891 25.9926 28.539 26.141 28.8389 26.4047C28.689 26.5201 28.539 26.5777 28.3891 26.5777V26.6519C28.5723 26.6519 28.664 26.7096 28.664 26.825L28.564 26.998L28.3891 26.9239H28.3141L28.3891 27.27C28.2725 27.4513 28.2141 27.5997 28.2141 27.715H28.0392L28.1392 27.27C28.0226 27.27 27.9642 27.2123 27.9642 27.0969C28.0142 26.9156 28.0725 26.825 28.1392 26.825C28.1392 26.7755 28.1059 26.7508 28.0392 26.7508C28.0892 26.1575 28.1808 25.8608 28.3141 25.8608L28.2141 25.6877V25.5146C28.2141 25.4652 28.2475 25.4405 28.3141 25.4405L28.2141 25.2674V25.1685H28.3891L28.3141 24.7235V24.3032H28.1392L28.2141 24.7235L28.0392 24.8224C27.9226 24.7565 27.8393 24.7235 27.7893 24.7235V24.5504C27.9559 24.5504 28.0392 24.4927 28.0392 24.3774V24.3032H27.7893C27.806 24.1878 27.8643 24.1301 27.9642 24.1301C27.9642 24.1796 27.9892 24.2043 28.0392 24.2043L28.1392 24.0312C28.0725 23.9159 28.0392 23.8252 28.0392 23.7593C28.1558 23.7593 28.2141 23.7016 28.2141 23.5862V23.339L28.0392 23.067V22.7951H28.2141V22.7209L28.1392 22.5478L27.6144 22.622V22.7951H27.9642V22.8939C27.4811 22.8939 27.2395 23.1824 27.2395 23.7593V23.8582H27.4145V24.0312H27.2395V24.1301L27.4145 24.3774C27.3145 24.3774 27.1729 24.5834 26.9896 24.9954H26.8897V25.1685H26.9896L27.1646 25.0696L27.2395 25.2674V25.4405C27.0729 25.4405 26.9896 25.4982 26.9896 25.6135C27.0396 25.7124 27.0646 25.8278 27.0646 25.9597L26.7147 26.4047C26.5481 26.4047 26.4648 26.2811 26.4648 26.0338L26.2899 26.1327H26.1899V25.9597C26.1899 25.9102 26.2816 25.8196 26.4648 25.6877L26.1899 25.2674L26.8147 25.1685C26.6314 24.8224 26.4815 24.6493 26.3649 24.6493V24.5504L26.8147 24.1301H26.4648L26.3649 23.9323C26.4315 23.9323 26.5814 23.7593 26.8147 23.4131V23.339C26.748 23.339 26.6564 23.306 26.5398 23.2401L26.6398 23.067V22.2017C26.6398 22.0863 26.7231 22.0286 26.8897 22.0286L26.7147 21.5836L26.8147 21.0644V20.9655L26.6398 20.7183C26.6398 20.4216 26.6981 20.2733 26.8147 20.2733L26.7147 20.1002V19.6552L26.8147 19.136C26.748 19.0371 26.7147 18.9217 26.7147 18.7899C26.8313 18.7899 26.8897 18.7322 26.8897 18.6168L26.8147 18.4437C26.8647 18.3283 26.8897 18.2047 26.8897 18.0729L26.7147 17.8256L26.8897 17.5537V17.2075L26.7147 16.9356V16.8614C26.7147 16.7955 26.748 16.7625 26.8147 16.7625C26.748 16.6636 26.6897 16.4082 26.6398 15.9961H26.7147L26.6398 15.7983V15.5511L26.8147 15.2791C26.6981 15.2791 26.6398 15.2214 26.6398 15.1061V15.0319C26.6398 14.966 26.6647 14.933 26.7147 14.933C26.5481 14.3891 26.4648 14.0677 26.4648 13.9688H26.5398C26.4398 13.8369 26.3232 13.054 26.1899 11.62C26.0566 11.62 25.965 11.3234 25.915 10.73H26.09V10.6558L25.7401 10.3097C25.8067 10.1943 25.8401 10.1037 25.8401 10.0377C25.7568 10.0377 25.6401 9.69161 25.4902 8.99935C25.207 8.43895 24.8238 7.44177 24.3406 6.00781C23.5076 4.12882 22.9412 2.99154 22.6413 2.59597C21.9416 2.03557 21.5917 1.65647 21.5917 1.45869C21.8249 0.964216 22.1498 0.642811 22.5663 0.49447C22.583 0.609846 22.6413 0.667534 22.7413 0.667534H22.8412C23.1744 0.387335 23.6742 0.247235 24.3406 0.247235L24.5156 0.321405L25.7401 0.0741705ZM30.6132 13.1034V13.2765H30.8631C30.8631 13.1611 30.8048 13.1034 30.6882 13.1034H30.6132ZM27.9642 17.6526V17.7267C28.0809 17.7267 28.1392 17.6691 28.1392 17.5537V17.4795C28.0226 17.496 27.9642 17.5537 27.9642 17.6526ZM28.2141 20.4463C28.2141 20.6276 28.1308 20.7183 27.9642 20.7183V20.7925H28.2141C28.2808 20.6771 28.3141 20.5947 28.3141 20.5452V20.4463H28.2141ZM28.2141 21.0644C28.2308 21.1798 28.2891 21.2375 28.3891 21.2375L28.489 21.0644H28.2141ZM27.8643 21.2375L27.9642 21.6578C28.0809 21.6083 28.1642 21.5836 28.2141 21.5836C28.1642 21.4847 28.1392 21.3693 28.1392 21.2375H27.8643ZM27.9642 21.8556V21.9297C27.9809 22.0451 28.0392 22.1028 28.1392 22.1028L28.2141 21.9297L28.0392 21.8556H27.9642ZM29.5386 22.0286V22.1028C29.6053 22.2182 29.6386 22.3088 29.6386 22.3748H29.7136V22.0286H29.5386ZM29.5386 22.5478C29.5386 22.7126 29.4803 22.7951 29.3637 22.7951L29.4637 23.339H29.6386L29.5386 23.1659V22.7209H29.7136V22.5478H29.5386ZM29.1888 23.7593C29.2054 23.8746 29.2637 23.9323 29.3637 23.9323H29.4637V23.512C29.3804 23.512 29.2887 23.5944 29.1888 23.7593ZM28.3891 23.8582V23.9323H28.489L28.564 23.5862C28.4474 23.5862 28.3891 23.6769 28.3891 23.8582ZM27.8643 24.9954H28.0392V25.0696C28.0392 25.2015 27.9809 25.2674 27.8643 25.2674V24.9954ZM27.8643 25.3416H28.0392V25.5146C28.0392 25.5971 27.9559 25.6877 27.7893 25.7866H27.6144C27.781 25.5888 27.8643 25.4405 27.8643 25.3416ZM27.8643 25.8608V25.9597C27.8643 26.075 27.806 26.1327 27.6894 26.1327V26.0338C27.706 25.9185 27.7643 25.8608 27.8643 25.8608ZM26.5398 26.4789L26.9896 26.5777V26.6519C26.9896 26.7673 26.9313 26.825 26.8147 26.825L26.6398 26.7508C26.6398 26.8003 26.6064 26.825 26.5398 26.825L26.6398 26.998C26.6398 27.1134 26.5814 27.1711 26.4648 27.1711C26.4648 27.1217 26.4315 27.0969 26.3649 27.0969C26.3982 26.6849 26.4565 26.4789 26.5398 26.4789ZM29.1138 27.0969H29.1888C29.3054 27.1134 29.3637 27.1711 29.3637 27.27C29.3637 27.3524 29.2471 27.4431 29.0138 27.542L28.9389 27.3442C29.0555 27.3442 29.1138 27.2618 29.1138 27.0969ZM27.9642 28.2342H28.1392V28.4815H27.9642V28.2342ZM38.7351 29.4457H39.1849C39.9513 29.8577 40.3345 30.3275 40.3345 30.8549C40.2012 30.8549 40.1096 31.0033 40.0596 31.2999C40.1762 31.3164 40.2345 31.3741 40.2345 31.473C40.2345 31.6213 40.1512 31.8191 39.9846 32.0664V32.4372H40.2345C40.1845 32.602 40.1262 32.6845 40.0596 32.6845C40.1762 32.8822 40.2345 33.0553 40.2345 33.2036V33.7476C39.768 34.2091 38.9767 34.5882 37.8604 34.8848C37.0108 35.1156 35.5946 35.3463 33.6121 35.5771L33.5371 35.404L32.4625 35.5771C32.2459 35.4617 32.0127 35.404 31.7628 35.404L31.5879 35.4782L31.4129 35.404L31.238 35.4782C29.7386 35.3134 28.9389 35.1733 28.8389 35.0579C28.7389 35.1074 28.6223 35.1321 28.489 35.1321L25.3902 34.1679L24.7655 33.9948V33.9206H25.0404C25.0404 33.8217 24.9237 33.7064 24.6905 33.5745H24.4156C24.299 33.591 24.2407 33.6487 24.2407 33.7476C23.8242 33.6816 23.6159 33.591 23.6159 33.4756C23.7992 33.4756 23.8908 33.4179 23.8908 33.3025C23.4243 33.3025 23.1911 33.2119 23.1911 33.0306V32.9564C23.7742 33.0388 24.0657 33.1212 24.0657 33.2036C24.1657 33.1542 24.2823 33.1295 24.4156 33.1295V33.0306L23.8908 32.9564V32.8575L23.9908 32.6845C23.1744 32.4043 22.6663 32.2642 22.4664 32.2642V32.0664C22.533 32.0664 22.5663 32.0993 22.5663 32.1653L22.7413 32.0664H22.8412C22.9578 32.0993 23.0161 32.1653 23.0161 32.2642L23.1911 32.1653C23.291 32.2312 23.4077 32.2642 23.5409 32.2642V32.1653C23.4743 32.0499 23.441 31.9592 23.441 31.8933H23.7159C23.7159 32.0581 23.8908 32.1817 24.2407 32.2642V32.1653C24.1907 32.0664 24.1657 31.951 24.1657 31.8191H24.5156L24.7655 31.9922C24.7655 31.8768 24.8904 31.8191 25.1403 31.8191V31.6461H24.6905C24.274 31.4812 24.0657 31.3659 24.0657 31.2999L23.8908 31.3741H23.7159V31.201H23.9908V31.1269C23.4576 30.9456 23.0994 30.8549 22.9162 30.8549V30.6818C23.0328 30.6818 23.0911 30.6489 23.0911 30.583C23.5576 30.6489 23.7908 30.7395 23.7908 30.8549L23.9908 30.756L24.5156 30.8549C24.5156 30.789 24.5406 30.6983 24.5905 30.583L24.7655 30.6818H24.8654C25.2819 30.5665 25.5152 30.5088 25.5652 30.5088H25.7401C25.7901 30.5088 25.94 30.6489 26.1899 30.9291C26.4232 30.8137 26.5981 30.756 26.7147 30.756L26.8147 30.9291L26.9896 30.8549H27.4145C28.1642 31.0857 28.639 31.201 28.8389 31.201C28.8556 31.0857 28.9139 31.028 29.0138 31.028C29.0305 31.1434 29.0888 31.201 29.1888 31.201L30.8631 31.028V31.1269L31.0631 31.028C31.113 31.028 31.138 31.0609 31.138 31.1269L31.8378 30.9291C31.9544 30.995 32.046 31.028 32.1127 31.028L32.4625 30.9291C32.5292 30.9291 32.5625 30.962 32.5625 31.028C35.6446 30.6983 37.7022 30.1709 38.7351 29.4457ZM24.7655 31.3741V31.473H25.2153V31.3741H24.7655ZM21.9416 31.7202H22.2165C22.3331 31.7367 22.3914 31.7944 22.3914 31.8933V31.9922L21.9416 31.8933V31.7202ZM25.2153 31.8191V31.9922C25.9817 32.0581 26.3649 32.1735 26.3649 32.3383C26.3149 32.3383 26.2899 32.3713 26.2899 32.4372C26.4565 32.4372 26.5398 32.4619 26.5398 32.5114C26.6398 32.4619 26.7564 32.4372 26.8897 32.4372V32.2642C26.3065 31.9675 25.7484 31.8191 25.2153 31.8191ZM24.2407 33.3025V33.4014H24.7655V33.2036H24.6905L24.2407 33.3025ZM25.4902 33.2036V33.4014H25.7401C25.7401 33.2696 25.6818 33.2036 25.5652 33.2036H25.4902ZM25.3902 33.5745V33.6487C25.6235 33.6487 26.2399 33.7393 27.2395 33.9206H27.5144V33.8217L25.7401 33.5745H25.3902ZM27.6894 33.9206V34.0937H27.9642V33.9206H27.6894Z" fill="#9E0003"/>
<path d="M48.7562 0.123617H49.9558C52.3382 0.716981 54.8372 1.50813 57.4529 2.49707L58.4525 2.69486C58.5858 2.62893 58.6858 2.59597 58.7524 2.59597L59.0523 2.99154C59.1856 2.92561 59.2855 2.89265 59.3522 2.89265C60.5684 3.22229 61.7679 3.38712 62.9508 3.38712H63.8504C64.1337 3.38712 64.5002 3.35415 64.95 3.28822C65.0167 3.28822 65.05 3.32119 65.05 3.38712L65.7497 3.28822H66.8493C66.9992 3.28822 67.1325 3.32119 67.2491 3.38712C67.3158 3.38712 67.3491 3.35415 67.3491 3.28822C67.9489 3.37064 68.3154 3.43656 68.4487 3.48601C68.4653 3.35415 68.532 3.28822 68.6486 3.28822C68.9818 3.37064 69.1484 3.46953 69.1484 3.58491C69.0151 3.60139 68.9485 3.66732 68.9485 3.78269H69.1484V4.07938L69.0484 4.27716C69.1817 4.29365 69.2484 4.35957 69.2484 4.47495C69.2484 4.60681 68.3487 4.73867 66.5494 4.87053V5.06831L66.7493 4.96942H67.7489C67.8989 5.10128 68.0988 5.16721 68.3487 5.16721V5.365H67.549L66.8493 5.2661C66.8493 5.46389 66.4828 5.56278 65.7497 5.56278V5.46389H65.3499V5.66168L64.95 5.56278L64.3502 5.66168V5.76057C65.0833 5.76057 65.4498 5.85947 65.4498 6.05725V6.15615H65.3499L64.95 5.95836C64.95 6.09022 64.8834 6.15615 64.7501 6.15615C64.6168 6.09022 64.5169 6.05725 64.4502 6.05725C64.1837 6.15615 64.0504 6.25504 64.0504 6.35394C64.1836 6.41987 64.2836 6.45283 64.3502 6.45283V6.65062H62.9508V6.74951L63.1507 7.04619V7.14509C63.0008 7.14509 62.8675 7.17805 62.7509 7.24398L62.1511 7.14509H61.9512V7.34288C62.0178 7.34288 62.1178 7.37584 62.2511 7.44177V7.24398H62.351C62.4843 7.26046 62.5509 7.32639 62.5509 7.44177V7.54066C62.4177 7.80438 62.2511 7.93624 62.0511 7.93624L62.1511 8.13403H61.8512L61.9512 7.93624H61.8512C61.5513 8.0681 61.3847 8.19996 61.3514 8.33181L61.4514 8.5296L61.6513 8.43071C61.7846 8.44719 61.8512 8.51312 61.8512 8.6285V8.72739C61.618 8.72739 61.3181 8.69443 60.9516 8.6285L60.7516 8.72739C60.635 8.66146 60.5017 8.6285 60.3518 8.6285C60.2851 8.6285 60.1852 8.66146 60.0519 8.72739C59.9353 8.66146 59.802 8.6285 59.6521 8.6285C59.6021 8.6285 59.3355 8.66146 58.8524 8.72739L58.0527 8.33181C57.9194 8.39774 57.8194 8.43071 57.7528 8.43071C57.7528 8.33182 57.0197 8.13403 55.5536 7.83735C53.0379 6.89785 50.6389 5.81002 48.3564 4.57385C48.3564 4.31013 48.2564 4.17827 48.0565 4.17827C48.1232 3.50249 48.2564 3.04099 48.4564 2.79375V2.49707C48.4564 2.34873 48.423 2.21687 48.3564 2.1015C48.4897 1.88723 48.5563 1.7224 48.5563 1.60703L48.4564 1.40924L48.6563 0.716981C48.5896 0.601605 48.5563 0.469746 48.5563 0.321405C48.573 0.189547 48.6396 0.123617 48.7562 0.123617ZM65.6497 4.87053V4.96942L66.1496 5.06831C66.1496 4.93646 66.0496 4.87053 65.8497 4.87053H65.6497ZM65.7497 5.85947H65.8497C65.983 5.87595 66.0496 5.94188 66.0496 6.05725H65.7497V5.85947ZM63.2507 6.15615V6.35394H63.5506C63.5506 6.22208 63.4839 6.15615 63.3506 6.15615H63.2507ZM61.4514 6.9473H61.7513V6.74951H61.6513C61.518 6.76599 61.4514 6.83192 61.4514 6.9473ZM51.8551 9.12297C52.8547 9.12297 53.3545 9.25483 53.3545 9.51854H53.4544L53.6544 9.41965C53.6544 9.51854 54.2541 9.98005 55.4537 10.8042C56.1201 11.0349 56.4533 11.4635 56.4533 12.0898C56.4033 12.0898 56.2367 12.2546 55.9535 12.5843L56.0534 12.782C56.0035 13.0458 55.9368 13.1776 55.8535 13.1776L55.9535 13.3754C55.4703 15.5676 55.0372 17.051 54.654 17.8256C54.7206 17.941 54.7539 18.0729 54.7539 18.2212C54.4874 18.2212 54.2541 18.7157 54.0542 19.7046C54.1875 19.7211 54.2541 19.787 54.2541 19.9024V20.0013H53.8543V20.1991C54.604 20.3309 55.1038 20.3969 55.3537 20.3969V20.1991C55.7536 20.1991 55.9535 20.3309 55.9535 20.5947C56.0868 20.5947 56.1534 20.5287 56.1534 20.3969L56.6532 20.4958H56.8531C56.9864 20.4958 57.0531 20.4298 57.0531 20.298C57.9194 20.3969 58.3526 20.4958 58.3526 20.5947L58.8524 20.4958H59.6521L60.1519 20.5947C60.1685 20.4628 60.2352 20.3969 60.3518 20.3969L61.5513 20.5947C61.6679 20.5287 61.8012 20.4958 61.9512 20.4958V20.3969L60.3518 16.1444C59.8853 14.4632 59.6521 13.5073 59.6521 13.2765C59.6521 12.8974 60.0186 12.5018 60.7516 12.0898C60.7516 11.892 60.8183 11.7931 60.9516 11.7931H61.0515L61.2514 11.892C61.468 11.5129 62.0345 10.9855 62.9508 10.3097C62.9508 10.046 63.2174 9.91412 63.7505 9.91412C63.7505 9.99653 64.017 10.1284 64.5502 10.3097C64.5502 10.9195 65.0167 12.2711 65.9496 14.3643C66.0829 14.3808 66.1496 14.4468 66.1496 14.5621C66.1496 14.6281 66.1162 14.661 66.0496 14.661C66.7827 16.4411 67.7489 19.1772 68.9485 22.8692C69.6982 24.7152 70.4979 26.3635 71.3476 27.8139C71.5975 28.4732 72.064 29.2314 72.747 30.0885C72.747 30.4511 73.2802 31.44 74.3464 33.0553C74.8296 34.2255 75.2294 35.0497 75.5459 35.5277L75.346 35.6265C75.0795 35.3628 74.9462 35.165 74.9462 35.0332H74.8462V35.231H74.6463V35.1321C74.6463 35.0661 74.6796 35.0332 74.7463 35.0332C74.5963 34.753 74.3964 34.4563 74.1465 34.1431C74.0132 34.2091 73.9132 34.242 73.8466 34.242V34.4398L74.0465 34.3409C74.0465 34.5387 74.1465 34.6376 74.3464 34.6376L74.2464 35.1321C74.3131 35.1321 74.3464 35.165 74.3464 35.231L74.1465 35.3299C73.4801 34.8684 72.9469 34.2091 72.5471 33.352H72.4471L72.5471 33.1542C72.2139 32.7916 72.0473 32.5608 72.0473 32.4619H71.8474V32.6597C72.0473 32.9399 72.2805 33.4014 72.5471 34.0442H72.747V34.242H72.4471C72.4471 34.0442 72.2805 33.7805 71.9473 33.4509C72.014 33.4509 72.0473 33.4179 72.0473 33.352C71.914 33.352 71.8474 33.2531 71.8474 33.0553L71.6474 33.1542C71.5142 33.1542 71.4475 33.0883 71.4475 32.9564C71.5808 32.9564 71.6474 32.8905 71.6474 32.7586V32.6597L71.4475 32.7586C71.2309 32.5608 71.0643 32.4619 70.9477 32.4619L71.1476 32.1653V32.0664C70.9477 32.0664 70.8478 31.9675 70.8478 31.7697L70.9477 31.5719V31.473H70.8478V31.6708L70.3479 31.3741V31.473C70.5479 31.7202 70.6478 31.951 70.6478 32.1653V32.363C70.298 31.7038 70.0314 31.2752 69.8481 31.0774H70.248L70.3479 30.8796C70.2313 30.8796 70.0647 30.8137 69.8481 30.6818C69.6316 30.8137 69.4316 30.8796 69.2484 30.8796C69.2484 30.6159 69.1817 30.4841 69.0484 30.4841H68.7486V29.9896C68.5486 29.9896 68.4487 29.9237 68.4487 29.7918V29.6929L68.5486 29.4951C68.2821 29.3962 68.1488 29.2973 68.1488 29.1984H68.3487C68.3487 29.0831 68.1155 28.9512 67.649 28.8029V29.0007L67.8489 29.2973V29.3962C67.4324 29.0831 67.1992 28.7534 67.1492 28.4073L67.3491 28.3084L67.549 28.4073L67.7489 28.1106C67.6157 28.1106 67.4824 27.9128 67.3491 27.5172H67.2491C67.2491 27.6656 67.2158 27.7974 67.1492 27.9128C66.9659 27.9128 66.666 27.5832 66.2495 26.9239C66.3162 26.792 66.3495 26.6931 66.3495 26.6272L66.1496 26.5283C66.0163 26.825 65.883 26.9898 65.7497 27.0228C65.7497 26.9568 65.4498 26.792 64.8501 26.5283V26.9239H64.6501C63.7005 24.2867 63.0008 22.8033 62.5509 22.4736C62.5509 22.4077 62.5843 22.3748 62.6509 22.3748C62.5843 22.0781 62.4177 21.8803 62.1511 21.7814C62.1511 21.9133 61.9512 22.0121 61.5513 22.0781C61.5513 21.9462 61.4847 21.8803 61.3514 21.8803L60.9516 22.0781L60.8516 21.8803C60.7516 21.9462 60.5517 21.9792 60.2518 21.9792V22.177C60.3851 22.177 60.5517 22.2759 60.7516 22.4736L60.9516 22.3748H61.7513V22.5725H61.4514C61.1681 22.5725 60.8016 22.6055 60.3518 22.6714C60.2185 22.6055 60.1185 22.5725 60.0519 22.5725L59.852 22.6714L59.6521 22.5725L59.4521 22.6714C59.1189 22.6055 58.9523 22.5396 58.9523 22.4736C58.9523 22.5396 58.5858 22.5725 57.8527 22.5725L57.9527 22.7703V22.8692C57.6195 22.8692 57.4529 22.9352 57.4529 23.067V23.1659H56.6532V23.3637H56.4533C56.4533 23.2154 56.32 23.1165 56.0534 23.067V22.9681H55.9535V23.067C56.0868 23.2813 56.1534 23.4461 56.1534 23.5615H55.5536C55.4204 23.578 55.3537 23.6439 55.3537 23.7593V23.8582L55.5536 23.7593H55.6536V24.1548C55.4537 24.0889 55.1871 24.056 54.8539 24.056V24.1548C54.6873 24.1548 54.5873 24.023 54.554 23.7593L54.2541 23.9571L54.0542 23.8582C53.9376 23.9241 53.771 23.9571 53.5544 23.9571V24.056C53.5711 24.1878 53.6377 24.2537 53.7543 24.2537C53.771 24.1219 53.8376 24.056 53.9543 24.056C54.4874 24.1384 54.7539 24.2702 54.7539 24.4515V24.5504L54.554 24.4515H54.4541V24.6493C54.9205 24.7812 55.1871 24.8471 55.2537 24.8471V24.946L55.0538 25.2427L54.8539 25.1438C54.7206 25.1603 54.654 25.2262 54.654 25.3416C54.9872 25.3416 55.1538 25.4075 55.1538 25.5394V25.7372C54.6706 25.6877 54.3374 25.5888 54.1542 25.4405H54.0542C53.9209 25.457 53.8543 25.5229 53.8543 25.6383L53.6544 25.5394H52.4548C51.9883 25.5394 51.7551 25.7701 51.7551 26.2316H51.6551L51.3552 26.0338C51.2553 26.0338 51.1553 26.1327 51.0554 26.3305C51.1886 26.3964 51.2886 26.4294 51.3552 26.4294V26.6272H51.2553C51.122 26.5613 51.022 26.5283 50.9554 26.5283L51.0554 26.7261C50.8888 26.7261 50.7555 26.9898 50.6555 27.5172L50.3556 27.715C50.3556 27.6491 50.3223 27.6161 50.2557 27.6161L50.0557 27.9128L49.8558 27.8139H49.7559V27.9128L49.9558 28.2095C49.9558 28.3414 49.8891 28.4073 49.7559 28.4073H49.5559V28.2095C49.356 28.2754 49.2561 28.4732 49.2561 28.8029L49.456 29.0995C49.456 29.2314 49.3893 29.2973 49.2561 29.2973C49.2561 29.1655 49.1894 29.0995 49.0561 29.0995L48.6563 29.594H48.3564C48.1232 30.4016 47.9232 30.8302 47.7566 30.8796C47.7566 30.8137 47.7233 30.7807 47.6567 30.7807L47.7566 30.583V30.4841C47.6567 30.4841 47.5567 30.583 47.4567 30.7807V31.0774H47.3568L47.4567 31.2752V31.3741C47.3901 31.3741 47.1235 31.5389 46.6571 31.8686H46.5571C46.5571 31.8026 46.5904 31.7697 46.6571 31.7697L46.5571 31.5719C46.6237 31.44 46.6571 31.3411 46.6571 31.2752H46.3572L46.4571 31.473V31.5719H46.3572C46.2239 31.506 46.1239 31.473 46.0573 31.473L46.2572 31.7697C46.2572 31.9015 46.1572 31.9675 45.9573 31.9675V32.2642C46.1073 32.1488 46.4072 32.0499 46.857 31.9675V32.363C46.7737 32.363 46.707 32.5608 46.6571 32.9564C46.5238 32.9564 46.4571 32.8905 46.4571 32.7586V32.363H46.6571V32.2642H46.5571C46.3072 32.4619 46.1406 32.5608 46.0573 32.5608V32.8575L46.2572 32.7586H46.3572V33.2531H46.2572V33.352L46.4571 33.6487L46.2572 33.7476C46.2572 33.6816 46.2239 33.6487 46.1572 33.6487V33.7476L46.2572 33.9453L45.6574 34.242V34.1431C45.6574 33.9783 45.7907 33.8794 46.0573 33.8465V33.6487L45.8574 33.7476H45.7574L45.3576 33.4509V33.8465H45.2576L44.9577 33.6487L44.8577 33.8465L45.0577 33.9453C44.8577 34.8684 44.6578 35.3299 44.4579 35.3299L44.5579 35.5277C44.3579 35.6925 44.258 35.8243 44.258 35.9232H44.0581V35.7254H43.7582C43.6749 36.1869 43.5416 36.4177 43.3583 36.4177L43.4583 36.6155C43.3083 37.1429 43.0418 37.5715 42.6586 37.9011H42.5586L42.4587 37.4066V37.11H42.6586V37.0111C42.4587 37.0111 42.3587 36.8462 42.3587 36.5166C42.1921 36.6485 42.0588 36.7144 41.9589 36.7144L42.0588 36.9122C42.0588 37.0111 41.9589 37.11 41.7589 37.2089C41.6257 37.2089 41.559 37.1429 41.559 37.0111C41.8756 36.088 42.1421 35.6265 42.3587 35.6265L42.2587 35.4288V35.3299H42.5586V35.231C42.5586 35.0991 42.492 35.0332 42.3587 35.0332C42.442 34.7035 42.542 34.5387 42.6586 34.5387L42.5586 34.3409C42.7252 34.242 43.0918 33.4509 43.6582 31.9675L44.158 31.1763C44.0247 31.1763 43.9581 31.1104 43.9581 30.9785C44.2913 30.1544 44.5579 29.7259 44.7578 29.6929C44.6911 29.561 44.6578 29.4622 44.6578 29.3962C45.1243 28.2095 45.4575 27.6161 45.6574 27.6161L45.5575 27.1217C45.824 26.8085 46.1572 25.9514 46.5571 24.5504C46.5071 24.435 44.9744 23.8417 41.9589 22.7703C41.1592 22.3583 40.7593 21.9957 40.7593 21.6825C40.8926 21.4682 40.9592 21.2704 40.9592 21.0891V20.9902L40.5594 19.9024C40.626 19.5398 40.6594 19.2761 40.6594 19.1113C40.6594 19.0618 40.5261 18.7322 40.2595 18.1223C40.3262 17.9245 40.3928 17.8256 40.4594 17.8256L40.3595 17.6278V17.529L40.9592 16.9356L48.3564 19.309C49.4893 15.4192 50.0557 13.2106 50.0557 12.6831C50.2557 12.6831 50.4223 12.1557 50.5556 11.1008L50.7555 11.002L50.6555 10.8042C50.7888 10.6723 50.8888 10.2438 50.9554 9.51854L51.8551 9.12297ZM60.6517 21.2869H61.0515V21.0891H60.8516C60.7183 21.1056 60.6517 21.1715 60.6517 21.2869ZM59.3522 21.9792V22.0781L59.4521 22.2759C59.3855 22.2759 59.3522 22.3088 59.3522 22.3748H60.2518C60.2518 22.2923 60.0519 22.1605 59.6521 21.9792H59.3522ZM56.2534 22.177V22.2759H56.6532V22.177H56.2534ZM54.654 22.4736V22.5725H55.0538V22.4736H54.654ZM56.9531 22.5725V22.8692H57.153V22.5725H56.9531ZM57.253 22.5725C57.2696 22.7044 57.3363 22.7703 57.4529 22.7703C57.5862 22.7044 57.6861 22.6714 57.7528 22.6714V22.5725H57.253ZM58.9523 22.9681H59.0523C59.1856 22.9846 59.2522 23.0505 59.2522 23.1659V23.2648H59.1522C59.019 23.2648 58.9523 23.1989 58.9523 23.067V22.9681ZM55.2537 24.5504H55.5536C55.5536 24.6823 55.487 24.7482 55.3537 24.7482L55.2537 24.5504ZM65.2499 24.8471C65.3165 24.979 65.3499 25.0779 65.3499 25.1438C65.4831 25.1438 65.5498 25.0779 65.5498 24.946C65.4831 24.946 65.3832 24.913 65.2499 24.8471ZM64.8501 24.946V25.2427C64.9833 25.2427 65.05 25.1768 65.05 25.0449L64.8501 24.946ZM54.2541 25.0449V25.1438C54.2708 25.2756 54.3374 25.3416 54.4541 25.3416V25.0449H54.2541ZM64.2503 25.3416H64.5502V25.1438H64.4502C64.3169 25.1603 64.2503 25.2262 64.2503 25.3416ZM65.4498 25.7372H65.7497V25.5394H65.6497C65.5165 25.5558 65.4498 25.6218 65.4498 25.7372ZM66.1496 25.6383V25.7372C66.1662 25.869 66.2329 25.9349 66.3495 25.9349L66.4494 25.7372L66.2495 25.6383H66.1496ZM64.5502 25.836V25.9349C64.6168 26.0668 64.6501 26.1657 64.6501 26.2316H64.8501C64.7501 25.9679 64.6501 25.836 64.5502 25.836ZM65.9496 27.1217H66.0496C66.1829 27.1381 66.2495 27.2041 66.2495 27.3195V27.4183H66.1496C66.0163 27.4183 65.9496 27.3524 65.9496 27.2206V27.1217ZM66.2495 27.5172L66.8493 28.6051H66.6494C66.5827 28.6051 66.3828 28.3084 66.0496 27.715C66.0663 27.5832 66.1329 27.5172 66.2495 27.5172ZM65.5498 27.6161H65.6497C65.7497 27.6161 65.8497 27.715 65.9496 27.9128L65.7497 28.0117L65.5498 27.715V27.6161ZM49.7559 28.9018H49.8558V29.0995H49.5559C49.5726 28.9677 49.6392 28.9018 49.7559 28.9018ZM66.8493 29.0007H66.9492C67.1325 29.0007 67.2658 29.2314 67.3491 29.6929H67.2491C67.1159 29.6929 66.9826 29.4622 66.8493 29.0007ZM69.1484 29.1984V29.3962C69.215 29.5281 69.2484 29.627 69.2484 29.6929H69.3483V29.2973L69.1484 29.1984ZM46.9569 30.7807V30.8796H47.1569V30.583C47.0236 30.5994 46.9569 30.6654 46.9569 30.7807ZM46.4571 30.8796V31.0774H46.6571C46.7903 31.0774 46.857 31.0115 46.857 30.8796H46.4571ZM71.5475 32.0664V32.1653H71.7474C71.8807 32.0993 71.9807 32.0664 72.0473 32.0664V31.9675H71.9473C71.8307 32.0334 71.6974 32.0664 71.5475 32.0664ZM71.2476 32.1653V32.2642C71.2643 32.396 71.3309 32.4619 71.4475 32.4619V32.363C71.4475 32.2312 71.3809 32.1653 71.2476 32.1653ZM45.5575 32.4619V32.6597H45.7574C45.8907 32.6597 45.9573 32.5938 45.9573 32.4619V32.363H45.8574C45.7241 32.429 45.6241 32.4619 45.5575 32.4619ZM45.4575 33.1542C45.4742 33.2861 45.5408 33.352 45.6574 33.352C45.6574 33.2531 45.7241 33.1212 45.8574 32.9564V32.8575H45.7574C45.6574 32.8575 45.5575 32.9564 45.4575 33.1542ZM44.8577 33.0553V33.352L45.1576 33.1542V33.4509H45.2576V32.9564H45.1576C45.0243 33.0223 44.9244 33.0553 44.8577 33.0553ZM45.9573 32.9564V33.2531L46.1572 33.352V33.2531C46.0906 33.1212 46.0573 33.0223 46.0573 32.9564H45.9573ZM73.2468 32.9564V33.352L73.4468 33.4509H73.5467C73.4134 33.2861 73.3468 33.1212 73.3468 32.9564H73.2468ZM71.4475 33.9453H71.5475C71.6808 33.9618 71.7474 34.0278 71.7474 34.1431V34.242H71.6474C71.5142 34.242 71.4475 34.1761 71.4475 34.0442V33.9453ZM42.8585 34.4398V34.5387H43.2584V34.3409H43.1584C43.0251 34.4069 42.9252 34.4398 42.8585 34.4398ZM44.258 34.5387L44.3579 34.7365V34.8354L44.0581 35.231L44.258 35.3299C44.258 35.0826 44.3913 34.9178 44.6578 34.8354C44.5912 34.72 44.5579 34.5552 44.5579 34.3409L44.258 34.5387ZM45.3576 34.242C45.4575 34.242 45.5575 34.3739 45.6574 34.6376L45.8574 34.5387H45.9573C45.9573 34.6706 45.7574 34.7695 45.3576 34.8354C45.2909 34.7035 45.2576 34.6046 45.2576 34.5387C45.3242 34.4069 45.3576 34.308 45.3576 34.242ZM72.847 34.5387L73.0469 34.8354V34.9343H72.847C72.7137 34.9343 72.6471 34.8684 72.6471 34.7365C72.6637 34.6046 72.7304 34.5387 72.847 34.5387ZM73.2468 35.1321L73.3468 35.3299V35.5277H73.1469C73.1469 35.4617 73.1135 35.3628 73.0469 35.231L73.2468 35.1321ZM44.9577 35.3299L45.2576 35.7254L45.0577 35.8243C45.0577 35.7254 44.9577 35.5936 44.7578 35.4288L44.9577 35.3299ZM73.9466 35.4288H74.1465L74.3464 35.5277C74.2798 35.643 74.2464 35.7749 74.2464 35.9232H74.0465L73.9466 35.4288ZM42.6586 35.7254C42.6586 35.8243 42.592 35.9562 42.4587 36.121V36.2199H42.5586C42.6586 36.2199 42.7586 36.0881 42.8585 35.8243L42.6586 35.7254ZM44.9577 35.8243H45.0577V35.9232C45.0577 36.0551 44.991 36.121 44.8577 36.121L44.7578 35.9232L44.9577 35.8243ZM42.8585 36.3188H43.1584V36.121H43.0584C42.9252 36.1375 42.8585 36.2034 42.8585 36.3188ZM44.158 36.121V36.4177C44.158 36.5496 44.0914 36.6155 43.9581 36.6155H43.8581V36.5166C43.9581 36.2529 44.0581 36.121 44.158 36.121ZM41.559 37.4066L41.659 37.6044V37.8022C41.659 37.9341 41.5923 38 41.4591 38L41.2591 37.9011C41.3424 37.5715 41.4424 37.4066 41.559 37.4066Z" fill="#9E0003"/>
<path d="M74.5463 0.0988939H75.1211C75.7375 0.70874 76.304 1.6812 76.8205 3.01627C77.0037 3.27998 77.2869 3.99696 77.6701 5.16721C78.2699 6.17263 78.7114 7.73845 78.9946 9.86467C79.3778 10.9525 79.6944 12.5101 79.9443 14.5374H79.8443C79.9609 14.7846 80.0609 15.2297 80.1442 15.8725C80.0775 15.9879 80.0442 16.0785 80.0442 16.1444C80.1109 16.2598 80.1442 16.3505 80.1442 16.4164C80.1442 16.4823 80.1109 16.5153 80.0442 16.5153C80.1775 17.4383 80.2441 18.9052 80.2441 20.9161H80.1442C80.1442 20.982 80.1775 21.015 80.2441 21.015L80.1442 21.4847V22.7951C80.1442 24.1961 79.9193 24.979 79.4694 25.1438V25.2427H79.8443V25.6135C79.8443 25.9432 79.7527 26.1327 79.5694 26.1822L79.6694 26.3552V27.1217H79.4694L79.5694 27.5914L78.9946 28.432V28.5062H79.0946L79.2945 28.432L79.3945 28.6051C79.0946 28.7369 78.9363 28.8606 78.9196 28.9759L79.0946 29.2726V29.3715H78.9946L78.8197 29.2726V29.3715C78.8197 29.421 78.853 29.4457 78.9196 29.4457C78.853 29.9566 78.753 30.2121 78.6198 30.2121C78.6198 30.278 78.6531 30.311 78.7197 30.311L77.4952 35.3546H77.3952C77.262 35.3546 77.1953 35.2969 77.1953 35.1815L77.2953 34.6129H77.0954V34.1431L77.2953 33.8712C77.2286 33.7393 77.1953 33.6404 77.1953 33.5745L77.3952 33.4756C77.4119 33.6075 77.4702 33.6734 77.5702 33.6734V33.4756C77.4535 33.3273 77.3952 33.2036 77.3952 33.1047C77.5119 32.2971 77.7034 31.4236 77.97 30.4841L77.8701 30.311L78.045 29.9154L77.97 29.7424C78.1866 28.704 78.3699 28.1106 78.5198 27.9623V27.8634H78.3449C78.4615 27.4348 78.5198 27.0557 78.5198 26.7261V26.4541H78.3449C78.3449 26.619 78.2782 26.7755 78.1449 26.9239L78.2449 27.1217C78.1949 27.4843 78.1283 27.6656 78.045 27.6656L78.1449 27.8634C78.045 28.0117 77.9534 28.2589 77.8701 28.6051C77.9367 28.7205 77.97 28.8441 77.97 28.9759H77.8701C77.9367 29.1078 77.97 29.2067 77.97 29.2726C77.8367 29.7011 77.7034 29.9154 77.5702 29.9154V30.0143L77.6701 30.4841C77.5202 30.7313 77.3952 30.8549 77.2953 30.8549L77.3952 31.0527V31.3247H77.1953L77.2953 31.6955C77.1953 32.3878 77.0704 32.7339 76.9204 32.7339C76.9204 32.668 76.8871 32.635 76.8205 32.635C76.8205 32.7009 76.7871 32.7339 76.7205 32.7339L77.0204 33.2036L76.7205 33.5745L76.8205 33.7723C76.7705 34.2008 76.6122 34.4151 76.3456 34.4151V34.514C76.5456 34.514 76.6455 34.5799 76.6455 34.7118V34.8107H76.5456L76.3456 34.7118C76.3456 34.7777 76.3123 34.8107 76.2457 34.8107L76.3456 34.9837V35.0826C76.3456 35.2145 76.2873 35.2804 76.1707 35.2804H75.9708V34.9837C76.0874 34.8519 76.179 34.5717 76.2457 34.1431C76.1957 34.0278 76.1707 33.9041 76.1707 33.7723L76.4456 33.3025H76.2457V33.1047C76.4456 33.1047 76.5456 32.7339 76.5456 31.9922H77.0204V31.8933C77.0204 31.7614 76.9204 31.6955 76.7205 31.6955V31.0527L76.9204 30.7807C76.7871 30.7807 76.7205 30.7148 76.7205 30.583L76.9204 30.4841C76.9204 30.4181 76.8871 30.3852 76.8205 30.3852L76.9204 29.9154V29.8412H76.7205L76.8205 30.0143V30.1132C76.8205 30.2451 76.7621 30.311 76.6455 30.311H76.5456L76.4456 29.9154C76.5789 29.9154 76.6455 29.8577 76.6455 29.7424V29.1737H76.9204V29.3715H77.0954V28.9759C77.2286 28.9759 77.2953 28.9182 77.2953 28.8029V28.5062H76.8205V28.432L76.9204 28.2342C76.7871 28.2342 76.7205 28.1765 76.7205 28.0612C76.8871 27.9293 77.0121 27.8634 77.0954 27.8634C77.0954 27.7315 77.037 27.6656 76.9204 27.6656L77.0954 26.2563C77.0454 26.1574 77.0204 26.0338 77.0204 25.8855C77.137 25.8855 77.1953 25.8278 77.1953 25.7124H77.0204V25.4157L77.2953 24.8718C77.162 24.6576 77.0954 24.468 77.0954 24.3032C77.2286 24.3032 77.2953 24.2373 77.2953 24.1054C77.162 24.1054 77.0954 24.0477 77.0954 23.9323C77.2286 23.9323 77.2953 23.8664 77.2953 23.7345L77.0954 23.4626C77.162 23.3307 77.1953 23.2318 77.1953 23.1659C76.8288 23.4296 76.6455 24.1548 76.6455 25.3416V25.7124H76.3456L76.4456 25.0449V24.946H76.3456C76.3456 25.2097 76.254 25.3416 76.0707 25.3416C75.9375 25.3416 75.8708 25.2756 75.8708 25.1438V24.8718L75.9708 24.674L75.7709 24.5751C75.9041 24.1136 75.9708 23.8334 75.9708 23.7345L75.6959 23.2648V22.8939C75.6959 22.828 75.7209 22.7951 75.7709 22.7951L75.6959 22.622V21.3858C75.6959 21.254 75.7209 21.1303 75.7709 21.015C75.7209 20.8996 75.6959 20.776 75.6959 20.6441V19.9766C75.6959 19.8447 75.7209 19.7211 75.7709 19.6057L75.6959 19.4327C75.8125 19.2184 75.8708 19.0288 75.8708 18.864V18.7651L75.7709 18.1223H75.9708V17.7267C75.8375 17.7267 75.7125 17.0098 75.5959 15.5758H75.6959C75.6126 14.8506 75.5126 14.4468 75.396 14.3643L75.496 14.1666L75.396 13.6968C75.6459 13.4166 75.8708 13.26 76.0707 13.2271L76.2457 13.326C76.3623 13.26 76.4956 13.2271 76.6455 13.2271V12.9551H76.5456C76.4123 13.021 76.3123 13.054 76.2457 13.054V12.9551L76.3456 12.7573C75.9125 12.6419 75.6959 12.4277 75.6959 12.1145L75.396 12.2876L75.296 12.1145C75.396 12.1145 75.496 11.9909 75.5959 11.7437L75.1211 10.0377H75.0211V10.2355H74.7463C74.7463 10.1037 74.5213 9.63392 74.0715 8.82628V8.55433C74.1382 8.55433 74.1715 8.52136 74.1715 8.45543C73.9882 8.45543 73.7383 7.89503 73.4218 6.77424C73.2885 6.77424 73.2218 6.67534 73.2218 6.47755C73.2885 6.36218 73.3218 6.27152 73.3218 6.2056C72.9886 6.07374 72.5138 5.10128 71.8973 3.28822C71.2643 2.67838 70.9477 2.21687 70.9477 1.90371C70.9644 1.77185 71.031 1.70592 71.1476 1.70592H71.4225V1.80481C71.3559 1.92019 71.3226 2.01084 71.3226 2.07677C71.4225 2.01084 71.5808 1.97788 71.7974 1.97788V1.90371C71.7974 1.77185 71.7391 1.70592 71.6225 1.70592C71.6891 1.21145 71.814 0.964216 71.9973 0.964216H72.0973C72.1472 0.964216 72.1722 0.98894 72.1722 1.03839C72.2389 1.03839 72.2722 1.01366 72.2722 0.964216C72.6221 1.01366 72.872 1.03839 73.0219 1.03839C73.2718 0.824116 73.78 0.510952 74.5463 0.0988939ZM101.936 4.79636H102.036V4.89525C101.902 5.07656 101.803 5.29083 101.736 5.53806C101.803 5.66992 101.836 5.76881 101.836 5.83474L101.661 5.73585L101.561 5.93364L101.661 6.1067C101.394 6.48579 101.261 6.76599 101.261 6.9473C101.144 6.89785 101.053 6.87313 100.986 6.87313C101.503 5.57103 101.819 4.87877 101.936 4.79636ZM96.6378 6.77424C97.5875 6.77424 98.0623 7.05444 98.0623 7.61483L98.2372 7.71373H98.5371C98.5371 7.77966 98.5621 7.87031 98.6121 7.98569C98.5621 8.10106 98.5371 8.19172 98.5371 8.25764C98.7537 8.55433 99.1285 8.86749 99.6617 9.19714L99.8616 9.12297H99.9366L100.136 9.66688H100.236C100.236 9.43613 100.295 9.25483 100.411 9.12297C100.361 8.99111 100.336 8.89221 100.336 8.82628C100.586 8.36478 100.711 8.08458 100.711 7.98569C100.578 7.98569 100.511 7.91976 100.511 7.7879V7.71373H100.711V7.41705C100.428 7.66428 100.27 7.94448 100.236 8.25764H100.037C100.037 8.15875 99.9782 8.03513 99.8616 7.88679C100.012 7.77142 100.136 7.71373 100.236 7.71373L100.136 7.51594V7.41705C100.236 7.41705 100.361 7.35936 100.511 7.24398C100.578 7.24398 100.611 7.26871 100.611 7.31815C100.811 7.20278 101.003 7.14509 101.186 7.14509C101.303 7.34288 101.361 7.49946 101.361 7.61483C101.278 7.61483 101.186 7.73845 101.086 7.98569C101.153 7.98569 101.186 8.01865 101.186 8.08458L100.986 8.18347C100.986 8.11754 100.953 8.08458 100.886 8.08458C100.886 8.18347 100.828 8.30709 100.711 8.45543V8.55433H100.811C100.928 8.4884 101.019 8.45543 101.086 8.45543L100.711 9.39493V9.66688C100.461 9.69985 100.336 9.79874 100.336 9.96357V10.0377C100.403 10.0377 100.495 10.0707 100.611 10.1366C100.495 10.5817 100.37 10.8042 100.236 10.8042L100.336 11.2739C100.336 11.7025 100.203 11.9167 99.9366 11.9167L100.037 12.3865V12.5843L99.8616 12.4854H99.7616V12.6831L99.9366 12.5843V12.9551L99.8616 13.1529L99.6617 13.054H99.5617C99.595 13.3012 99.695 13.4249 99.8616 13.4249V14.3643H100.037V14.933H99.8616V14.8341C99.8616 14.7682 99.8866 14.7352 99.9366 14.7352C99.8866 14.6198 99.8616 14.5292 99.8616 14.4632H99.7616C99.7616 14.6281 99.695 14.8753 99.5617 15.2049C99.6284 15.3203 99.6617 15.411 99.6617 15.4769H99.5617L99.3868 15.4027V15.4769C99.5034 15.6252 99.5617 15.8148 99.5617 16.0455H99.6617L99.7616 15.4769L99.9366 15.5758L99.8616 16.0455L99.9366 16.4164C99.8533 16.4164 99.7616 16.6059 99.6617 16.985H99.4617V17.0839C99.6617 17.0839 99.7616 17.1746 99.7616 17.3559C99.7616 17.3889 99.7283 17.5125 99.6617 17.7267L99.7616 17.9245L99.5617 18.5921L99.6617 18.7651C99.5284 19.5728 99.4617 20.0425 99.4617 20.1744H99.6617V19.9024C99.6617 19.7541 99.695 19.6222 99.7616 19.5068L99.6617 19.3338C99.8449 18.8228 99.9366 18.5426 99.9366 18.4932C99.8866 18.4932 99.8616 18.4602 99.8616 18.3943C99.9782 18.3943 100.037 18.3283 100.037 18.1965C99.9699 17.8668 99.9366 17.5866 99.9366 17.3559L100.236 16.985C100.136 16.985 100.037 16.8944 99.9366 16.7131V16.5153C100.07 16.2681 100.17 16.1444 100.236 16.1444L100.136 15.9467V15.7736C100.153 15.6417 100.22 15.5758 100.336 15.5758L100.711 15.7736C100.711 15.4275 100.836 15.2049 101.086 15.1061H101.261C101.261 15.2379 101.361 15.3038 101.561 15.3038V15.4769L101.461 15.9467H101.661L101.936 14.6363C101.869 14.5209 101.836 14.4303 101.836 14.3643L101.936 13.7957C101.869 13.7957 101.836 13.7627 101.836 13.6968C102.002 13.6803 102.194 13.1529 102.411 12.1145C102.344 11.9991 102.311 11.9002 102.311 11.8178L102.511 11.7437C102.527 11.859 102.586 11.9167 102.686 11.9167H102.785V11.7437H102.511V11.3728L102.985 11.447L103.085 10.8042L102.686 11.175L102.611 10.9772C102.661 10.4168 102.877 10.1366 103.26 10.1366C103.327 10.0213 103.36 9.9306 103.36 9.86467H103.26L102.985 10.0377V9.56799H103.085L103.36 9.76578L103.535 9.39493C103.285 9.39493 103.16 9.329 103.16 9.19714V9.02407C103.194 8.89221 103.26 8.82628 103.36 8.82628L103.46 9.02407C103.327 9.04055 103.26 9.09824 103.26 9.19714H103.46C103.544 9.19714 103.727 8.70267 104.01 7.71373C104.143 7.71373 104.21 7.6478 104.21 7.51594C104.143 7.40056 104.11 7.27695 104.11 7.14509L104.485 6.87313H104.585L104.485 7.04619C104.551 7.04619 104.585 7.07916 104.585 7.14509C104.468 7.16157 104.41 7.21926 104.41 7.31815V7.61483H104.585V7.7879C104.318 7.7879 104.102 8.23292 103.935 9.12297V9.19714L104.01 9.39493C103.86 9.39493 103.768 9.51854 103.735 9.76578H103.835C103.702 9.96357 103.635 10.1201 103.635 10.2355V10.4333H103.735C103.735 10.2355 103.802 10.013 103.935 9.76578C103.868 9.76578 103.835 9.73281 103.835 9.66688L104.01 9.56799C104.01 9.63392 104.043 9.66688 104.11 9.66688C103.993 10.5569 103.835 11.1256 103.635 11.3728L103.735 12.0156C103.618 12.0156 103.46 12.6749 103.26 13.9935L103.36 14.1666C103.227 14.5292 103.135 14.9412 103.085 15.4027C103.135 15.5181 103.16 15.6088 103.16 15.6747C103.044 15.8725 102.985 16.062 102.985 16.2433V16.985L102.686 17.3559C102.819 17.3559 102.885 17.4548 102.885 17.6526L102.785 18.0234C102.785 18.0894 102.819 18.1223 102.885 18.1223C102.819 18.6827 102.752 18.9629 102.686 18.9629L102.785 19.136V19.8035C102.785 19.8694 102.752 19.9024 102.686 19.9024C102.686 19.9519 102.719 19.9766 102.785 19.9766C102.735 20.6688 102.677 21.015 102.611 21.015L102.686 21.2128V21.9545C102.686 22.1028 102.719 22.2264 102.785 22.3253L102.686 22.5231C102.686 22.589 102.719 22.6797 102.785 22.7951C102.719 23.2236 102.686 23.5697 102.686 23.8334V24.0065L102.785 24.4763H102.686L102.785 24.674V24.8718C102.785 26.6025 103.352 29.8825 104.485 34.7118C104.551 34.7118 104.618 34.8024 104.685 34.9837C104.501 35.8573 104.277 36.2941 104.01 36.2941L104.11 36.4919V36.5908C104.11 36.7061 104.052 36.7638 103.935 36.7638H103.835C103.702 36.7638 103.635 36.6732 103.635 36.4919H103.46C103.46 36.6732 103.394 36.7638 103.26 36.7638L102.985 36.5908L102.686 36.7638H101.936C101.869 36.7638 101.619 36.7061 101.186 36.5908C101.186 36.7226 100.77 36.8133 99.9366 36.8627C99.4534 35.6925 99.0452 34.3162 98.712 32.7339C98.3955 31.201 98.1456 30.2368 97.9623 29.8412C98.029 29.7094 98.0623 29.6105 98.0623 29.5446L97.9623 28.9018H98.0623C97.929 28.5721 97.8624 28.3496 97.8624 28.2342C97.9956 28.2342 98.0623 28.1765 98.0623 28.0612V27.9623C97.929 27.9623 97.7707 27.1794 97.5875 25.6135C97.6374 25.4322 97.6958 25.3416 97.7624 25.3416L97.6624 25.1438V24.3032C97.6624 24.2373 97.6958 24.2043 97.7624 24.2043L97.5875 23.7345C97.6374 23.306 97.6624 22.9599 97.6624 22.6962V22.5231L97.5875 21.9545C97.7207 21.5259 97.8124 21.3116 97.8624 21.3116C97.7291 20.982 97.6624 20.7595 97.6624 20.6441C97.8624 20.6441 97.9623 20.298 97.9623 19.6057C97.829 19.6057 97.7624 19.548 97.7624 19.4327C97.829 19.4327 97.8624 19.3997 97.8624 19.3338L98.0623 19.4327H98.1373V19.3338L97.9623 19.0371C97.9623 18.9876 97.9956 18.9629 98.0623 18.9629L97.9623 18.7651V17.9245C97.9623 17.7597 98.1206 17.6691 98.4371 17.6526V17.4548C98.1872 17.4548 98.0623 17.3312 98.0623 17.0839C98.1789 16.4576 98.3039 16.1444 98.4371 16.1444C98.5038 16.2598 98.5371 16.3505 98.5371 16.4164H99.0869C99.0869 16.2516 98.9286 16.1609 98.6121 16.1444V16.0455C98.6121 15.9631 98.712 15.8725 98.912 15.7736C98.912 15.8395 98.9369 15.8725 98.9869 15.8725V15.6747C98.9869 15.5099 98.837 15.4192 98.5371 15.4027V15.2049C98.6204 15.2049 98.7454 15.139 98.912 15.0072V15.3038C99.0286 15.2379 99.1202 15.2049 99.1869 15.2049V15.1061C99.0036 14.9247 98.912 14.7105 98.912 14.4632L98.712 14.5374H98.5371C99.0369 14.2902 99.2868 13.9193 99.2868 13.4249V13.326C99.1369 13.4578 99.0119 13.5237 98.912 13.5237V13.6226H99.0869V13.7957H98.912L98.712 13.6968C98.762 13.2683 98.8287 13.054 98.912 13.054C98.9953 13.1199 99.1535 13.1529 99.3868 13.1529L99.5617 12.8562L99.4617 12.4854C99.595 12.2876 99.6617 12.098 99.6617 11.9167V11.7437H99.3868V11.9167H99.2868L99.0869 11.8178L98.9869 12.0156L99.1869 12.2876V12.3865H99.0869L98.812 12.2134C97.2626 14.5539 96.2546 15.9879 95.7882 16.5153L92.4644 20.0755V20.1744L93.9639 24.8718C93.9639 24.9872 93.9389 25.0449 93.8889 25.0449L93.9639 25.7124V26.0833C93.9639 27.3359 93.7473 27.9623 93.3141 27.9623C93.1975 27.8963 93.1059 27.8634 93.0392 27.8634C93.0392 27.9952 92.9726 28.0612 92.8393 28.0612C92.7727 28.0612 92.7393 28.0282 92.7393 27.9623C92.5061 28.0776 92.0313 28.1683 91.3149 28.2342C91.3149 28.1188 91.2233 28.0612 91.04 28.0612C90.8067 28.2425 90.3319 28.3661 89.6155 28.432C89.4323 27.5255 89.1824 26.6519 88.8658 25.8113C88.5493 24.9707 88.391 24.435 88.391 24.2043C87.6913 24.9625 87.2498 25.3416 87.0665 25.3416C86.9999 25.2262 86.9665 25.0943 86.9665 24.946H86.7666C86.7666 25.1768 86.4251 25.5888 85.742 26.1822H85.6421L85.5421 25.7124C85.5421 25.5806 86.1085 24.8636 87.2414 23.5615H87.1415C86.7916 23.8087 86.5417 23.9323 86.3918 23.9323C86.3918 23.8005 86.3335 23.7345 86.2168 23.7345L86.0169 24.0065V24.2043H86.2168V24.3032C85.9669 24.7317 85.8087 24.946 85.742 24.946H85.6421V24.5751C85.5088 24.5751 85.4421 24.5175 85.4421 24.4021L86.1169 23.3637C86.2335 23.2978 86.3251 23.2648 86.3918 23.2648L86.2918 23.0917L86.1169 23.1659H85.817C86.0836 22.5396 86.4334 22.1028 86.8666 21.8556C86.9166 21.8556 87.0748 21.6413 87.3414 21.2128V21.015H87.0665V20.8419H87.2414V20.5452C86.8916 20.776 86.4501 21.2128 85.917 21.8556C85.8003 21.8556 85.2672 22.3253 84.3176 23.2648H84.2176V23.1659C84.3509 22.9681 84.7257 22.4984 85.3422 21.7567C85.3422 21.6248 85.5004 21.4435 85.817 21.2128V21.1139C85.5671 21.1139 85.4421 21.0479 85.4421 20.9161C85.8253 20.6524 86.0169 20.4958 86.0169 20.4463V20.1744C86.1002 19.9931 86.2252 19.9024 86.3918 19.9024L86.7666 19.4327C86.65 19.4327 86.5917 19.3667 86.5917 19.2349C86.7083 19.2349 86.7666 19.1689 86.7666 19.0371V18.9629L86.5917 18.6662C86.6084 18.5509 86.6667 18.4932 86.7666 18.4932H86.8666L87.0665 18.5921V18.4932C86.6167 18.1635 86.3918 17.941 86.3918 17.8256V17.3559C86.575 17.3559 86.6667 17.2982 86.6667 17.1828H86.5917C86.4751 17.2323 86.3501 17.257 86.2168 17.257C86.2168 17.0922 85.9586 16.4741 85.4421 15.4027V15.3038C85.5421 15.3038 85.6421 15.2049 85.742 15.0072H85.2672V14.7352H85.4421V14.933H85.5421V14.8341C85.4755 14.7187 85.4421 14.5951 85.4421 14.4632C85.5754 14.3973 85.6754 14.3643 85.742 14.3643V14.2655L85.2672 13.6226C85.3172 13.5073 85.3422 13.3754 85.3422 13.2271H85.2672L84.9673 13.4249V13.326L85.0673 13.1529C85.0006 13.0375 84.9673 12.9057 84.9673 12.7573C85.034 12.7573 85.0673 12.7326 85.0673 12.6831C85.3172 12.7656 85.4421 12.8562 85.4421 12.9551C85.3755 12.9551 85.3422 12.9881 85.3422 13.054C85.6087 13.1364 85.742 13.2271 85.742 13.326C85.6087 13.3424 85.5421 13.4084 85.5421 13.5237C85.8087 13.7875 86.1585 14.3149 86.5917 15.1061L86.7666 15.0072L86.8666 15.2049V15.3038H86.7666L86.5917 15.2049V15.3038C87.1915 16.4906 87.5663 17.4301 87.7163 18.1223C87.6496 18.1223 87.6163 18.147 87.6163 18.1965L87.8162 18.2954L87.9162 18.1223C87.9162 17.941 87.658 17.2488 87.1415 16.0455V15.7736L87.3414 15.6747H87.4414C87.4414 15.856 87.533 15.9467 87.7163 15.9467C87.9662 15.8642 88.0911 15.7736 88.0911 15.6747C87.9745 15.6747 87.9162 15.584 87.9162 15.4027H87.7163V15.4769L87.8162 15.6747L87.6163 15.7736C87.4664 15.3286 87.3414 15.1061 87.2414 15.1061V15.3038H87.0665V14.933H87.1415L87.3414 15.0072L87.4414 14.8341C87.3081 14.8341 87.1498 14.6775 86.9665 14.3643V14.5374H86.8666C86.7333 14.5374 86.6667 14.4797 86.6667 14.3643L86.8666 14.2655H87.0665C87.1831 14.2655 87.2414 14.3561 87.2414 14.5374H87.3414C87.4747 14.5374 87.5413 14.4138 87.5413 14.1666H87.9162L88.1911 14.3643V14.1666L87.7163 13.4249C87.7829 13.4249 87.8162 13.3919 87.8162 13.326C87.6996 13.26 87.608 13.2271 87.5413 13.2271C87.5413 13.1776 87.5663 13.1529 87.6163 13.1529L87.2414 12.4854L87.4414 12.3865C87.7579 12.8645 88.1328 13.6144 88.5659 14.6363H88.7659V14.5374C88.1828 13.499 87.8329 12.7244 87.7163 12.2134C87.5663 12.131 87.2831 11.5047 86.8666 10.3344C87.2331 10.5652 87.7413 11.4387 88.391 12.9551H88.6659V12.8562L88.491 12.5843H88.7659C88.8825 12.6007 89.0741 12.8809 89.3406 13.4249L89.2407 13.6226C89.7405 14.3479 89.9904 14.7846 89.9904 14.933H90.1903V14.7352H90.2903L90.5652 14.933H90.6651L92.1646 13.054C92.5644 12.3123 92.9809 11.7766 93.4141 11.447C94.8635 8.66146 95.9381 7.10388 96.6378 6.77424ZM100.611 6.77424H100.811V6.87313C100.811 6.98851 100.745 7.04619 100.611 7.04619C100.478 7.04619 100.411 6.98851 100.411 6.87313L100.611 6.77424ZM103.16 6.77424H103.26V6.87313L102.985 7.24398L103.16 7.31815C103.194 7.20278 103.26 7.14509 103.36 7.14509V7.61483H103.16V7.41705L102.985 7.51594H102.785C102.869 7.02147 102.994 6.77424 103.16 6.77424ZM103.835 6.9473H104.01C103.96 7.06268 103.935 7.21926 103.935 7.41705H103.735L103.835 6.9473ZM99.9366 8.45543C100.037 8.45543 100.136 8.54609 100.236 8.72739C100.236 8.85925 100.17 8.92518 100.037 8.92518C99.9199 8.85925 99.8283 8.82628 99.7616 8.82628V8.65322C99.7783 8.52136 99.8366 8.45543 99.9366 8.45543ZM101.936 8.45543C101.936 8.52136 101.969 8.55433 102.036 8.55433C101.836 9.0488 101.736 9.45261 101.736 9.76578H101.561C101.644 8.89221 101.769 8.45543 101.936 8.45543ZM102.411 8.45543H102.611C102.727 8.47192 102.785 8.53784 102.785 8.65322V8.72739C102.785 8.85925 102.727 8.92518 102.611 8.92518L102.686 9.39493C102.686 9.46085 102.661 9.49382 102.611 9.49382L102.686 9.66688C102.636 9.79874 102.611 9.89764 102.611 9.96357L102.136 9.86467L102.211 10.0377V10.1366L102.036 10.4333V10.5075H102.511V10.7053C102.311 10.7053 102.211 10.7959 102.211 10.9772L102.036 10.9031H101.936V10.9772H102.136V11.2739C102.136 11.4058 102.161 11.5294 102.211 11.6448L102.036 12.0156L102.136 12.2134C102.069 12.6419 101.969 12.8562 101.836 12.8562L101.936 13.054C101.936 13.1694 101.844 13.2271 101.661 13.2271C101.778 13.7051 101.836 13.9935 101.836 14.0924C101.553 14.2078 101.394 14.3314 101.361 14.4632C101.494 14.4632 101.561 14.488 101.561 14.5374L101.461 14.7352C101.528 14.8506 101.561 14.9742 101.561 15.1061H101.261C101.261 14.7929 101.203 14.6363 101.086 14.6363C100.953 14.6363 100.886 14.5786 100.886 14.4632V14.1666C100.836 14.1666 100.678 14.1089 100.411 13.9935C100.411 13.8946 100.545 13.771 100.811 13.6226H100.886V14.0924H100.986C100.986 13.8781 101.078 13.6556 101.261 13.4249L100.986 13.2271H100.886V13.4249H100.711V12.9551L100.886 12.1145H100.986C101.119 12.131 101.186 12.1887 101.186 12.2876C101.053 12.5183 100.986 12.7738 100.986 13.054V13.1529L101.261 12.9551L101.736 13.054V12.8562C101.469 12.8562 101.286 12.7326 101.186 12.4854C101.186 12.4029 101.278 12.3123 101.461 12.2134C101.461 12.1475 101.428 12.1145 101.361 12.1145C101.461 11.6036 101.586 11.2574 101.736 11.0761C101.619 11.0761 101.561 11.0184 101.561 10.9031C101.711 10.7053 101.836 10.6064 101.936 10.6064L101.736 10.3344L102.036 9.86467V9.56799H102.411C102.411 9.45261 102.286 9.39493 102.036 9.39493V9.12297C102.219 9.12297 102.311 9.09 102.311 9.02407L102.211 8.55433L102.411 8.45543ZM74.8212 9.56799V9.76578C74.8545 9.89764 74.9212 9.96357 75.0211 9.96357H75.1211V9.86467C75.0545 9.7493 75.0211 9.6504 75.0211 9.56799H74.8212ZM75.296 9.56799V9.66688C75.3294 9.79874 75.396 9.86467 75.496 9.86467V9.76578C75.496 9.63392 75.4293 9.56799 75.296 9.56799ZM86.4917 9.66688H86.6667L86.7666 10.1366C86.6333 10.1366 86.5417 9.98005 86.4917 9.66688ZM75.6959 9.96357C75.8125 10.2108 75.8708 10.4251 75.8708 10.6064H75.9708V10.5075C75.9041 10.2602 75.8708 10.046 75.8708 9.86467L75.6959 9.96357ZM75.396 9.96357V10.2355C75.4127 10.3674 75.4793 10.4333 75.5959 10.4333V10.1366C75.5959 10.0213 75.5293 9.96357 75.396 9.96357ZM101.561 9.96357C101.561 10.013 101.594 10.0377 101.661 10.0377C101.594 10.1696 101.561 10.2685 101.561 10.3344H101.361V10.1366C101.378 10.0213 101.444 9.96357 101.561 9.96357ZM99.3868 11.2739V11.5459L99.8616 11.6448C99.8616 11.5129 99.7616 11.447 99.5617 11.447C99.8783 10.936 100.037 10.5981 100.037 10.4333H99.9366L99.3868 11.2739ZM101.186 10.5075H101.261C101.394 10.5404 101.461 10.6064 101.461 10.7053V10.9772H101.361C101.244 10.9772 101.186 10.9195 101.186 10.8042V10.5075ZM85.6421 10.6064H85.817C85.817 10.7712 85.9503 10.8948 86.2168 10.9772V11.2739L86.3918 11.175C86.3918 11.2409 86.4251 11.2739 86.4917 11.2739L86.3918 11.447V11.6448L86.6667 11.447H86.7666V11.5459L86.6667 11.7437H86.8666V11.8178C86.8666 11.9497 86.7999 12.0156 86.6667 12.0156V11.9167L86.4917 12.0156C86.0919 11.5871 85.8087 11.1503 85.6421 10.7053V10.6064ZM75.5959 11.175L75.7709 11.2739V10.9772C75.6542 11.0102 75.5959 11.0761 75.5959 11.175ZM76.0707 11.0761V11.6448H76.2457V11.5459L76.1707 11.0761H76.0707ZM75.2211 11.0761C75.2211 11.1421 75.2461 11.175 75.296 11.175L75.2211 11.3728L75.396 11.6448L75.2211 11.7437C75.0878 11.4799 75.0211 11.2904 75.0211 11.175L75.2211 11.0761ZM75.7709 11.3728V11.7437H75.8708V11.3728H75.7709ZM101.086 11.3728C101.203 11.3893 101.261 11.447 101.261 11.5459L101.086 11.6448V11.3728ZM86.8666 11.6448H86.9665C87.0832 11.6612 87.1415 11.7189 87.1415 11.8178V11.9167C87.0582 11.9167 86.9666 11.8261 86.8666 11.6448ZM103.16 11.9167C103.194 12.0486 103.26 12.1145 103.36 12.1145V11.7437C103.227 11.7601 103.16 11.8178 103.16 11.9167ZM101.661 12.0156V12.1145H101.836V11.8178C101.719 11.8508 101.661 11.9167 101.661 12.0156ZM76.2457 11.9167V12.2876C76.3956 12.6667 76.5289 12.8562 76.6455 12.8562V12.7573C76.4456 12.4606 76.3456 12.1804 76.3456 11.9167H76.2457ZM84.8674 12.0156C84.934 12.098 84.9673 12.2546 84.9673 12.4854C84.8507 12.4194 84.7591 12.3865 84.6924 12.3865C84.6924 12.4524 84.6591 12.4854 84.5925 12.4854L84.3176 12.1145H84.3925C84.5258 12.1804 84.6258 12.2134 84.6924 12.2134C84.7091 12.0815 84.7674 12.0156 84.8674 12.0156ZM86.4917 12.2134H86.6667C86.7999 12.4442 86.8666 12.6584 86.8666 12.8562C86.9999 12.8562 87.0665 12.7656 87.0665 12.5843C87.1998 12.5843 87.2914 12.7408 87.3414 13.054L87.2414 13.2271L87.8162 13.8946C87.8162 14.0429 87.658 14.1336 87.3414 14.1666C86.8916 13.2271 86.6417 12.7573 86.5917 12.7573L86.6667 12.5843V12.4854H86.4917V12.2134ZM103.085 12.4854V12.7573H103.26V12.6831C103.26 12.5513 103.202 12.4854 103.085 12.4854ZM102.985 12.8562V13.326C103.102 13.326 103.16 13.2683 103.16 13.1529C103.11 13.021 103.085 12.9221 103.085 12.8562H102.985ZM88.5659 13.054L89.0408 14.2655H89.2407V14.0924C89.0574 13.8452 88.9658 13.6556 88.9658 13.5237C89.0158 13.5237 89.0408 13.4908 89.0408 13.4249C88.9241 13.4249 88.8658 13.3012 88.8658 13.054H88.5659ZM86.4917 13.5237H86.7666V13.6968H86.4917V13.5237ZM100.037 13.5237H100.236L100.136 13.9935H100.037V13.5237ZM100.411 14.1666H100.511L100.811 14.3643C100.745 14.4797 100.711 14.6033 100.711 14.7352H100.411V14.1666ZM87.7163 14.3643C87.7329 14.4797 87.7996 14.5374 87.9162 14.5374H88.0161C88.0161 14.422 87.9495 14.3643 87.8162 14.3643H87.7163ZM88.0911 14.5374C88.0911 14.6363 88.1911 14.7352 88.391 14.8341V14.7352C88.391 14.6033 88.3244 14.5374 88.1911 14.5374H88.0911ZM98.6121 14.7352C98.7454 14.7517 98.812 14.8176 98.812 14.933V15.0072C98.6621 15.0072 98.5371 15.0401 98.4371 15.1061L98.3372 14.933L98.6121 14.7352ZM88.7659 14.933V15.0072C89.0824 15.584 89.2407 15.8972 89.2407 15.9467H89.3406V15.8725C89.174 15.378 88.9824 15.0648 88.7659 14.933ZM87.6163 15.0072V15.2049C87.7996 15.2049 87.9912 15.2956 88.1911 15.4769H88.291C88.2244 15.2626 87.9995 15.1061 87.6163 15.0072ZM89.5156 15.0072V15.3038H89.7155V15.2049C89.7155 15.0731 89.6489 15.0072 89.5156 15.0072ZM90.1903 15.0072V15.3038C90.2736 15.3038 90.3652 15.2049 90.4652 15.0072H90.1903ZM85.742 15.3038V15.5758C85.8586 15.5758 85.917 15.5181 85.917 15.4027L85.742 15.3038ZM100.611 15.8725C100.478 16.1197 100.411 16.301 100.411 16.4164H100.511C100.628 16.4164 100.728 16.2598 100.811 15.9467L100.611 15.8725ZM101.461 16.1444L101.361 16.3422V16.5153C101.378 16.6471 101.444 16.7131 101.561 16.7131L101.661 16.5153V16.3422C101.661 16.2104 101.594 16.1444 101.461 16.1444ZM88.0161 16.3422C88.0328 16.4576 88.0911 16.5153 88.1911 16.5153H88.391C88.391 16.3999 88.3244 16.3422 88.1911 16.3422H88.0161ZM102.411 16.3422L102.311 16.5153V16.6142H102.411C102.544 16.6142 102.611 16.5483 102.611 16.4164L102.411 16.3422ZM87.7163 16.5153V16.7131C87.8495 16.7131 87.9162 16.7708 87.9162 16.8861H88.0911V16.7131C87.9745 16.7131 87.9162 16.6471 87.9162 16.5153H87.7163ZM100.411 16.7872V16.8861H100.611V16.6142C100.478 16.6307 100.411 16.6884 100.411 16.7872ZM101.736 16.7872V16.8861H101.936V16.6142C101.803 16.6307 101.736 16.6884 101.736 16.7872ZM77.0204 16.985V17.3559H77.1953V17.257C77.1287 17.1416 77.0954 17.051 77.0954 16.985H77.0204ZM98.6121 17.257V17.3559H98.812V17.0839C98.6787 17.1004 98.6121 17.1581 98.6121 17.257ZM100.411 17.0839L100.336 17.4548C100.42 17.4548 100.511 17.3641 100.611 17.1828L100.411 17.0839ZM101.261 17.257L101.461 17.3559L101.561 17.1828V17.0839H101.461C101.328 17.1004 101.261 17.1581 101.261 17.257ZM100.811 17.257V17.4548H101.086C101.086 17.3229 101.019 17.257 100.886 17.257H100.811ZM98.6121 17.5537V17.6526C98.6287 17.7679 98.6954 17.8256 98.812 17.8256V17.7267C98.812 17.6114 98.7454 17.5537 98.6121 17.5537ZM76.2457 17.7267C76.2457 17.7927 76.2207 17.8916 76.1707 18.0234H76.3456C76.3456 17.9575 76.379 17.8586 76.4456 17.7267H76.2457ZM76.3456 18.1965C76.279 18.5261 76.2457 18.7157 76.2457 18.7651H76.4456C76.4456 18.7157 76.4789 18.5261 76.5456 18.1965H76.3456ZM99.2868 18.1965L99.1869 18.6662H99.3868C99.3868 18.4684 99.4118 18.3119 99.4617 18.1965H99.2868ZM101.261 18.2954V18.6662H101.461L101.361 18.4932L101.461 18.2954H101.261ZM76.9204 18.9629C76.9204 19.0453 77.012 19.136 77.1953 19.2349L77.2953 18.7651V18.6662C77.1453 18.864 77.0204 18.9629 76.9204 18.9629ZM98.1373 18.9629C98.2039 19.0783 98.2372 19.1689 98.2372 19.2349H98.3372V18.9629H98.1373ZM77.0954 19.6057V19.9024C77.2286 19.9024 77.2953 19.8365 77.2953 19.7046L77.0954 19.6057ZM99.4617 20.3722V20.4463C99.5284 20.5782 99.5617 20.6771 99.5617 20.743H99.6617V20.6441C99.595 20.5287 99.5617 20.4381 99.5617 20.3722H99.4617ZM86.3918 22.7951C86.4084 22.9269 86.4751 22.9928 86.5917 22.9928L86.6667 22.7951H86.3918ZM87.5413 23.0917V23.1659H87.6163C87.7496 23.1659 87.8162 23.1082 87.8162 22.9928V22.8939H87.7163C87.5996 22.9104 87.5413 22.9764 87.5413 23.0917ZM85.6421 23.3637H85.742V23.5615H85.4421C85.4588 23.4296 85.5254 23.3637 85.6421 23.3637ZM87.6163 24.1054V24.3032H87.8162C87.8995 24.3032 87.9912 24.2043 88.0911 24.0065V23.9323H88.0161C87.8495 24.0477 87.7163 24.1054 87.6163 24.1054ZM78.5198 24.1054C78.5864 24.2373 78.6198 24.3362 78.6198 24.4021L78.5198 25.2427C78.6198 25.2427 78.7197 25.0531 78.8197 24.674C78.8197 24.6081 78.7864 24.5751 78.7197 24.5751L78.8197 24.1054V24.0065H78.7197L78.5198 24.1054ZM87.3414 24.4763V24.5751C87.4747 24.5751 87.5413 24.5175 87.5413 24.4021V24.3032C87.408 24.3197 87.3414 24.3774 87.3414 24.4763ZM85.3422 24.4763H85.4421V24.5751C85.1922 24.8553 85.0673 25.0119 85.0673 25.0449V25.1438H85.1672C85.2839 25.0779 85.3755 25.0449 85.4421 25.0449V25.1438C85.2256 25.4734 84.7507 25.8443 84.0177 26.2563H83.9427V26.1822C83.9427 26.0998 84.2842 25.8443 84.9673 25.4157V25.2427L84.6924 25.4157H84.5925V25.2427C84.5925 25.1603 84.8424 24.9048 85.3422 24.4763ZM87.0665 24.7729V24.946H87.2414C87.3747 24.946 87.4414 24.8883 87.4414 24.7729H87.0665ZM78.4448 25.3416V25.7124H78.6198V25.3416H78.4448ZM75.9708 25.6135H76.1707C76.3206 25.7454 76.4456 25.8113 76.5456 25.8113C76.4956 26.6849 76.3956 27.1217 76.2457 27.1217L76.0707 27.0228V27.1217C76.254 27.3195 76.3456 27.476 76.3456 27.5914C76.3456 28.0035 76.154 28.3084 75.7709 28.5062C75.7709 28.8193 75.6792 28.9759 75.496 28.9759H75.396L75.496 28.5062V28.2342C75.3127 28.2342 75.2211 28.1765 75.2211 28.0612L75.396 27.9623H75.496L75.9708 28.0612L76.1707 27.3936L75.7709 27.7645H75.6959L75.7709 27.2947V27.1217L75.5959 26.825C75.7125 26.825 75.7709 26.7673 75.7709 26.6519V26.3552L75.5959 26.0833C75.7625 25.7701 75.8875 25.6135 75.9708 25.6135ZM76.0707 26.3552C76.1374 26.4706 76.1707 26.6272 76.1707 26.825H76.2457V26.2563L76.0707 26.3552ZM85.5421 26.1822H85.6421V26.2563C85.6421 26.3552 85.5171 26.4871 85.2672 26.6519L85.1672 26.4541L85.5421 26.1822ZM77.2953 26.3552C77.3119 26.4871 77.3786 26.553 77.4952 26.553H77.5702C77.7034 26.553 77.7701 26.4871 77.7701 26.3552H77.2953ZM83.8428 26.2563H83.9427V26.3552C83.9427 26.4541 83.8428 26.553 83.6428 26.6519H83.5429V26.553C83.5429 26.4541 83.6428 26.3552 83.8428 26.2563ZM77.2953 26.9239V27.1217H77.4952L77.5702 26.7261H77.4952C77.3619 26.7591 77.2953 26.825 77.2953 26.9239ZM77.0954 27.4925L77.2953 27.5914V27.2947C77.162 27.3112 77.0954 27.3771 77.0954 27.4925ZM79.1945 27.3936V27.6656H79.3945V27.3936H79.1945ZM77.0954 28.1353V28.3331C77.2286 28.3331 77.2953 28.2672 77.2953 28.1353V27.9623C77.162 27.9787 77.0954 28.0364 77.0954 28.1353ZM76.9204 28.704H77.0204V28.9759H76.9204C76.7871 28.9759 76.7205 28.9182 76.7205 28.8029L76.9204 28.704ZM75.8708 29.1737H76.0707V29.3715L75.9708 29.5446C76.0374 29.5446 76.0707 29.5775 76.0707 29.6435H75.8708V29.1737ZM76.8205 29.5446C76.8371 29.6764 76.9038 29.7424 77.0204 29.7424H77.0954V29.5446H76.8205ZM77.2953 34.0442V34.4151C77.4286 34.4151 77.4952 34.3574 77.4952 34.242C77.4952 34.1102 77.4286 34.0442 77.2953 34.0442ZM77.2953 35.5524V35.8243H77.0954V35.7254C77.1287 35.6101 77.1953 35.5524 77.2953 35.5524Z" fill="#9E0003"/>
<path d="M106.934 0C108.4 0.21427 109.491 0.477987 110.208 0.791152C114.723 2.48883 117.78 3.33767 119.379 3.33767C119.746 3.43656 119.971 3.52722 120.054 3.60963L120.229 3.51074C120.445 3.62611 120.679 3.6838 120.928 3.6838H121.003L121.528 3.33767H121.703V3.43656L121.628 3.60963H122.053V3.51074H121.878V3.33767H121.953C122.186 3.45305 122.303 3.5437 122.303 3.60963C122.37 3.60963 122.403 3.57666 122.403 3.51074L122.828 3.60963C122.894 3.60963 122.978 3.57666 123.078 3.51074C123.378 3.57666 123.527 3.63435 123.527 3.6838L123.952 3.60963H124.302C124.435 3.60963 124.552 3.63435 124.652 3.6838C124.902 3.56842 125.277 3.51074 125.777 3.51074C125.977 3.51074 126.235 3.5437 126.551 3.60963C126.735 3.49425 126.901 3.43656 127.051 3.43656L127.151 3.60963C127.351 3.49425 127.634 3.4036 128.001 3.33767C128.117 3.4036 128.209 3.43656 128.276 3.43656L128.451 3.33767L128.626 3.43656C128.725 3.37064 128.842 3.33767 128.975 3.33767L129.05 3.51074L128.875 3.60963L128.7 3.51074C128.7 3.59315 128.617 3.6838 128.451 3.78269H128.351L128.176 3.6838C128.176 3.84862 128.034 3.93103 127.751 3.93103V4.1041C128.034 4.1041 128.176 4.19475 128.176 4.37606L128.001 4.45023H127.751C127.751 4.5656 127.693 4.62329 127.576 4.62329L126.976 4.54912L126.901 4.72219C126.835 4.72219 126.801 4.68922 126.801 4.62329L125.077 4.89525L124.727 4.79636C124.41 4.86229 124.094 4.89525 123.777 4.89525L123.852 5.04359C123.919 5.04359 123.952 5.01887 123.952 4.96942L124.377 5.04359H124.902C125.035 5.04359 125.152 5.01887 125.252 4.96942L125.427 5.04359L125.927 4.96942V5.04359L126.101 4.96942H126.901L127.501 4.89525V4.96942C127.501 5.10128 127.009 5.21666 126.027 5.31555C126.027 5.43093 125.968 5.48861 125.852 5.48861C125.852 5.42268 125.827 5.38972 125.777 5.38972L125.852 5.21666V5.14249H125.777C125.527 5.30731 125.21 5.38972 124.827 5.38972C124.827 5.34027 124.794 5.31555 124.727 5.31555C124.727 5.44741 124.61 5.52982 124.377 5.56278C124.211 5.51334 124.127 5.45565 124.127 5.38972C123.894 5.5051 123.694 5.56278 123.527 5.56278L123.428 5.38972C123.344 5.45565 123.169 5.48861 122.903 5.48861C122.903 5.65344 123.078 5.73585 123.428 5.73585V5.90891C123.294 5.90891 123.069 5.93364 122.753 5.98308C122.353 5.93364 122.028 5.90891 121.778 5.90891V6.08198H121.953L122.128 5.98308L122.228 6.15615C122.145 6.15615 122.053 6.2468 121.953 6.42811L121.778 6.32921H121.703L121.278 6.42811C121.278 6.36218 121.245 6.32921 121.178 6.32921C121.178 6.51052 121.12 6.60117 121.003 6.60117C121.003 6.41987 120.945 6.32921 120.829 6.32921L120.679 6.60117H121.003V6.67534C121.003 6.79072 120.945 6.84841 120.829 6.84841H120.679V6.67534H120.579L120.329 6.84841C120.195 6.84841 120.079 6.82368 119.979 6.77424L119.804 6.84841C119.687 6.79896 119.604 6.77424 119.554 6.77424C119.621 7.05444 119.704 7.19454 119.804 7.19454H120.154V7.02147L120.404 7.19454H120.504L120.928 7.09564V7.19454C120.928 7.29343 120.787 7.37584 120.504 7.44177C120.387 7.39232 120.295 7.3676 120.229 7.3676H120.054V7.44177C120.404 7.44177 120.579 7.53242 120.579 7.71373V7.7879L119.704 7.71373V7.96096H120.154V8.13403C120.037 8.13403 119.979 8.15875 119.979 8.2082L119.454 8.13403C116.922 8.13403 113.065 6.99675 107.884 4.72219L106.834 3.85686L106.934 3.6838C106.867 3.20581 106.751 2.81024 106.584 2.49707C106.584 2.43114 106.609 2.34049 106.659 2.22511C106.542 1.79657 106.484 1.57406 106.484 1.55758H106.584C106.517 1.4422 106.459 1.15376 106.409 0.692258C106.542 0.576881 106.659 0.519193 106.759 0.519193L106.659 0.346129V0.173064C106.659 0.0576881 106.751 0 106.934 0ZM127.851 3.51074V3.78269H127.926C128.042 3.78269 128.101 3.72501 128.101 3.60963C128.034 3.60963 127.951 3.57666 127.851 3.51074ZM127.151 3.93103H127.676C127.676 3.88159 127.701 3.79918 127.751 3.6838C127.351 3.74973 127.151 3.83214 127.151 3.93103ZM126.201 4.02993V4.20299L126.626 4.1041V3.93103C126.526 3.99696 126.385 4.02993 126.201 4.02993ZM124.552 4.1041V4.20299H124.827V4.02993C124.71 4.07938 124.619 4.1041 124.552 4.1041ZM124.902 4.20299H124.977C125.094 4.20299 125.152 4.1453 125.152 4.02993H125.077C124.96 4.04641 124.902 4.1041 124.902 4.20299ZM123.178 4.96942V5.04359H123.527V4.96942H123.178ZM122.403 5.48861V5.66168C122.486 5.66168 122.603 5.71937 122.753 5.83474H122.828V5.66168C122.744 5.66168 122.628 5.60399 122.478 5.48861H122.403ZM123.852 5.73585H123.952V5.83474C123.952 5.93364 123.894 5.98308 123.777 5.98308H123.702V5.90891C123.719 5.79354 123.769 5.73585 123.852 5.73585ZM124.127 5.83474H124.377V5.98308H124.302C124.186 5.98308 124.127 5.93364 124.127 5.83474ZM123.952 6.08198C124.052 6.13143 124.169 6.15615 124.302 6.15615L124.902 6.08198V6.25504L124.127 6.32921V6.25504L123.952 6.32921H123.253V6.50228H123.178C123.044 6.3869 122.844 6.32921 122.578 6.32921V6.15615H123.602C123.736 6.15615 123.852 6.13143 123.952 6.08198ZM120.054 6.32921V6.50228H120.404C120.404 6.3869 120.345 6.32921 120.229 6.32921H120.054ZM119.554 6.60117H119.804V6.42811H119.704C119.604 6.44459 119.554 6.50228 119.554 6.60117ZM121.453 6.50228H121.628C121.628 6.56821 121.653 6.65886 121.703 6.77424C121.653 6.77424 121.628 6.79896 121.628 6.84841C121.528 6.79896 121.412 6.77424 121.278 6.77424V6.67534C121.295 6.55997 121.353 6.50228 121.453 6.50228ZM121.178 7.44177H121.353V7.54066C121.353 7.65604 121.295 7.71373 121.178 7.71373C121.062 7.71373 121.003 7.65604 121.003 7.54066L121.178 7.44177ZM119.029 7.7879V7.96096H119.104C119.221 7.96096 119.279 7.90327 119.279 7.7879H119.029ZM112.207 11.4717C112.473 11.6695 112.64 12.0651 112.707 12.6584C112.59 12.6749 112.532 12.7326 112.532 12.8315C112.715 12.8315 112.807 12.8892 112.807 13.0046C112.74 13.1034 112.707 13.2188 112.707 13.3507L112.982 13.5237C112.998 13.4084 113.057 13.3507 113.156 13.3507H113.406V13.5979C113.173 13.5979 113.057 13.6309 113.057 13.6968C113.123 13.7957 113.156 13.8781 113.156 13.944H113.331L113.231 13.771V13.6968C113.331 13.6968 113.473 13.6062 113.656 13.4249L113.756 13.5979C113.64 13.6638 113.548 13.6968 113.481 13.6968L113.756 14.1913V14.2902L113.581 14.5374C113.815 14.5704 113.931 14.661 113.931 14.8094L113.756 14.8835L113.481 14.7105V14.8094C113.598 15.2874 113.656 15.5676 113.656 15.65C113.606 15.7489 113.581 15.8642 113.581 15.9961H113.831V15.9219L113.756 15.7489C113.806 15.65 113.831 15.5346 113.831 15.4027H113.656V15.2297H113.831C113.915 15.2297 114.031 15.4027 114.181 15.7489L114.106 15.9219V15.9961L114.281 16.2433C114.164 16.2763 114.106 16.334 114.106 16.4164V16.5153C114.339 16.5153 114.456 16.573 114.456 16.6884V16.7625L114.356 16.9356C114.589 17.018 114.706 17.1004 114.706 17.1828V17.2817L114.531 17.1828H114.456L114.956 17.8751C115.106 17.7103 116.055 17.5372 117.805 17.3559C117.805 17.2405 118.271 17.1334 119.204 17.0345V17.1087C121.603 16.4823 122.869 16.1692 123.003 16.1692C123.069 16.0208 123.786 15.8478 125.152 15.65V15.4769H125.252C125.402 15.4769 125.577 15.5346 125.777 15.65C125.877 15.6005 125.985 15.5758 126.101 15.5758C126.251 15.5758 126.401 15.889 126.551 16.5153C126.435 16.5318 126.376 16.5895 126.376 16.6884V16.7625C126.593 16.7625 126.735 16.9603 126.801 17.3559C126.685 17.4218 126.601 17.4548 126.551 17.4548V17.529L126.726 17.8009V17.974C126.726 18.0894 126.668 18.147 126.551 18.147C126.668 18.3283 126.726 18.4932 126.726 18.6415C126.26 18.8723 125.993 18.9876 125.927 18.9876V19.0865C126.11 19.0865 126.201 19.136 126.201 19.2349L126.027 19.3338C126.027 19.2349 125.885 19.1525 125.602 19.0865V19.2349H125.777V19.4079C125.227 19.5892 124.852 19.6799 124.652 19.6799L124.477 19.581C124.011 19.6469 123.777 19.7376 123.777 19.853C123.827 19.853 123.852 19.8777 123.852 19.9271C123.752 19.9931 123.669 20.026 123.602 20.026V20.1991C123.769 20.1991 123.852 20.2485 123.852 20.3474V20.4463C123.552 20.5617 122.861 20.7348 121.778 20.9655C121.778 21.2952 120.512 21.5506 117.98 21.7319H117.905C117.805 21.8638 117.288 21.9462 116.355 21.9792C116.139 25.6877 115.789 27.6573 115.306 27.8881C115.189 28.2837 115.072 28.4815 114.956 28.4815C114.856 28.432 114.739 28.4073 114.606 28.4073C114.606 28.5062 114.556 28.5556 114.456 28.5556H114.356C114.223 28.5556 114.106 28.5309 114.006 28.4815C113.906 28.5309 113.79 28.5556 113.656 28.5556H113.581C113.448 28.4567 113.331 28.4073 113.231 28.4073L113.057 28.4815C112.94 28.432 112.857 28.4073 112.807 28.4073C112.69 28.4567 112.598 28.4815 112.532 28.4815C112.532 28.3661 112.482 28.3084 112.382 28.3084H112.282C111.282 28.3084 110.674 28.1106 110.458 27.715L110.308 27.4431V27.1958C110.557 26.9156 110.841 26.1739 111.157 24.9707L111.082 24.7977C111.299 24.501 111.407 23.99 111.407 23.2648L111.332 23.0917C111.382 22.9928 111.44 22.7126 111.507 22.2511H110.907C110.907 22.1193 110.874 22.0039 110.807 21.905C110.924 21.905 110.982 21.8473 110.982 21.7319H110.732L110.308 21.8061C110.308 21.7567 110.274 21.7319 110.208 21.7319L110.308 21.5589V21.46C109.774 21.46 109.508 21.3776 109.508 21.2128L109.333 21.2869H108.908C108.775 21.2869 108.658 21.2622 108.558 21.2128C108.508 21.2128 108.483 21.2375 108.483 21.2869L108.058 21.2128H107.709V21.2869C108.791 21.4353 109.333 21.5506 109.333 21.6331V21.8061H109.508C109.508 21.6413 109.566 21.5589 109.683 21.5589H109.783C110.016 21.7896 110.241 21.905 110.458 21.905V22.0781H110.208C109.541 22.0781 108.508 21.905 107.109 21.5589V21.2869C107.442 21.2375 107.609 21.1551 107.609 21.0397L107.434 20.9655H106.934V20.7925L107.359 20.6936C107.375 20.8089 107.434 20.8666 107.534 20.8666H107.709V20.7925C107.709 20.6936 107.509 20.6029 107.109 20.5205L106.934 20.6194C106.417 20.4381 106.159 20.298 106.159 20.1991V20.1002C106.276 20.1002 106.617 20.1826 107.184 20.3474V20.1991C106.601 20.1167 106.309 20.0013 106.309 19.853C106.309 19.7376 106.401 19.6799 106.584 19.6799C107.084 19.7293 107.4 19.7541 107.534 19.7541C107.534 19.7046 107.559 19.6799 107.609 19.6799C107.609 19.7623 107.7 19.8447 107.884 19.9271H108.483L108.308 19.6799C108.358 19.6799 108.383 19.6469 108.383 19.581C108.333 19.581 108.308 19.5563 108.308 19.5068L108.133 19.581L107.709 19.5068L107.534 19.581C107.284 19.5316 106.992 19.4162 106.659 19.2349L106.484 19.3338L104.935 18.7404H104.51V18.5673H104.76V18.3943H104.685L104.41 18.5673H104.335V18.4684L104.41 18.2954H104.16V18.2212L104.235 18.0481C104.768 18.1141 105.235 18.2295 105.634 18.3943C105.734 18.3283 105.818 18.2954 105.884 18.2954L106.059 18.3943H106.159V18.2954C105.876 18.1306 105.668 18.0481 105.534 18.0481C105.434 18.1141 105.351 18.147 105.285 18.147V18.0481C105.285 17.9493 105.426 17.8668 105.709 17.8009C105.726 17.9163 105.784 17.974 105.884 17.974H106.059V17.8009H105.884V17.6278C106.051 17.6278 106.484 17.8009 107.184 18.147H107.259C107.292 18.0317 107.35 17.974 107.434 17.974H107.784L108.058 18.147C108.175 18.147 108.233 18.0894 108.233 17.974C109.066 18.0234 109.55 18.1306 109.683 18.2954C109.683 18.213 109.833 18.1306 110.133 18.0481C110.632 18.1141 110.949 18.1718 111.082 18.2212L111.157 18.0481L111.582 18.147C111.665 18.1306 111.782 17.9822 111.932 17.702C111.849 17.702 111.765 17.6196 111.682 17.4548L111.932 17.0345V16.9356C111.932 16.8202 111.874 16.7625 111.757 16.7625C111.824 16.2681 111.915 15.9549 112.032 15.823V15.7489C111.865 15.7489 111.715 15.6335 111.582 15.4027C111.699 15.4027 111.757 15.345 111.757 15.2297V14.5374L111.682 14.1171C111.799 14.1171 111.857 14.0594 111.857 13.944V13.8699H111.682C111.682 13.6886 111.707 13.5979 111.757 13.5979L111.582 12.7573H111.682L111.582 12.5843V12.2381C111.599 12.1228 111.657 12.0651 111.757 12.0651C111.757 12.1145 111.79 12.1392 111.857 12.1392C111.857 12.0239 111.94 11.859 112.107 11.6448C112.057 11.6448 112.032 11.6118 112.032 11.5459L112.207 11.4717ZM111.932 12.1392L111.857 12.5843C111.857 12.6831 111.915 12.848 112.032 13.0787C111.915 13.1117 111.857 13.1694 111.857 13.2518C111.874 13.3672 111.932 13.4249 112.032 13.4249C112.149 13.0787 112.207 12.8562 112.207 12.7573C112.09 12.7573 112.032 12.6996 112.032 12.5843L112.207 12.1392H111.932ZM113.331 12.1392L113.481 12.4112H113.331C113.215 12.4112 113.156 12.3535 113.156 12.2381L113.331 12.1392ZM113.406 12.9304V13.1776H113.231V13.0787C113.248 12.9798 113.306 12.9304 113.406 12.9304ZM112.107 14.1171V14.1913L112.207 14.3643C112.14 14.4797 112.107 14.5704 112.107 14.6363H112.382C112.265 14.4056 112.207 14.2325 112.207 14.1171H112.107ZM113.406 14.2902L113.581 14.3643V14.1171C113.465 14.1336 113.406 14.1913 113.406 14.2902ZM112.882 14.5374V14.8835C112.898 14.9989 112.957 15.0566 113.057 15.0566H113.156L113.057 14.5374H112.882ZM114.781 16.7625C114.897 16.779 114.956 16.8367 114.956 16.9356L114.781 17.0345C114.664 17.0345 114.606 16.9768 114.606 16.8614L114.781 16.7625ZM114.181 17.6278V17.8009H114.606V17.6278H114.531C114.414 17.6773 114.331 17.702 114.281 17.702C114.281 17.6526 114.248 17.6278 114.181 17.6278ZM104.51 17.702H104.685V17.974H104.585C104.585 17.908 104.56 17.8174 104.51 17.702ZM104.935 17.8009H105.035C105.135 17.8174 105.185 17.8751 105.185 17.974V18.0481H104.935V17.8009ZM108.658 18.2212V18.3943H109.183L109.083 18.2212L108.908 18.2954C108.808 18.2459 108.725 18.2212 108.658 18.2212ZM105.185 18.5673V18.7404H105.459C105.459 18.625 105.401 18.5673 105.285 18.5673H105.185ZM108.733 19.581L108.658 20.026H108.908C109.041 20.026 109.158 20.0507 109.258 20.1002L109.433 20.026C109.583 20.026 109.783 20.1084 110.033 20.2733C110.049 20.1579 110.108 20.1002 110.208 20.1002L110.383 20.1991V20.026C110.266 20.026 110.208 19.9683 110.208 19.853H110.033V20.026H109.858V19.7541L109.433 19.853V19.7541L109.258 19.853H109.008C108.891 19.853 108.833 19.7623 108.833 19.581H108.733ZM108.058 20.3474C108.075 20.4628 108.133 20.5205 108.233 20.5205H108.383V20.3474H108.058ZM109.183 20.4463V20.5205C109.233 20.5205 109.316 20.5535 109.433 20.6194H109.508V20.5205C109.458 20.5205 109.375 20.4958 109.258 20.4463H109.183ZM110.308 20.6194V20.6936H111.082V20.6194H110.308ZM110.807 21.46C110.824 21.5754 110.882 21.6331 110.982 21.6331C111.099 21.6331 111.157 21.5754 111.157 21.46H110.807ZM107.434 28.7287C109.416 29.1408 111.782 29.6847 114.531 30.3604C116.464 30.5253 117.763 30.6983 118.429 30.8796H118.929L119.204 30.7066H119.979L120.229 30.8796C120.229 30.7643 120.32 30.7066 120.504 30.7066L120.829 30.7807C121.045 30.6654 121.278 30.6077 121.528 30.6077H122.053L122.228 30.7066C122.228 30.5417 122.286 30.4593 122.403 30.4593H123.078C123.428 30.5912 123.602 30.6736 123.602 30.7066C124.419 30.5088 124.827 30.3687 124.827 30.2863L125.427 30.3604H125.777L126.027 30.1874H126.101C126.168 30.1874 126.201 30.2203 126.201 30.2863L126.376 30.1874L126.901 30.2863H126.976L126.901 30.1132L127.051 30.0143H127.326C127.476 30.0143 127.651 30.072 127.851 30.1874L128.351 30.1132C128.367 30.2286 128.426 30.2863 128.526 30.2863C128.592 30.1709 128.626 30.0802 128.626 30.0143H128.8V30.1874C128.8 30.3028 128.742 30.3604 128.626 30.3604H127.751V30.4593C127.751 30.5582 127.984 30.6406 128.451 30.7066V30.7807L127.926 31.0527H127.851C127.851 30.8714 127.734 30.6406 127.501 30.3604C127.551 30.3604 127.576 30.3357 127.576 30.2863H127.401C127.401 30.4511 127.201 30.5335 126.801 30.5335C126.801 30.4841 126.776 30.4593 126.726 30.4593L126.626 30.6077C127.426 30.8219 127.834 30.995 127.851 31.1269C127.784 31.1269 127.751 31.1598 127.751 31.2258L127.576 31.1269H127.326V31.2999H127.226C127.109 31.2999 127.051 31.2422 127.051 31.1269C127.168 31.1269 127.226 31.0692 127.226 30.9538H126.976C126.976 31.2505 126.893 31.3988 126.726 31.3988H125.777C125.693 31.4977 125.144 31.6378 124.127 31.8191V31.9922C124.311 31.9922 124.452 32.0169 124.552 32.0664C124.552 32.0334 124.644 31.951 124.827 31.8191C124.927 31.8191 125.152 31.8768 125.502 31.9922C125.502 31.8439 125.852 31.7285 126.551 31.6461L126.726 31.7202C126.826 31.6708 126.91 31.6461 126.976 31.6461V31.8191C126.743 31.8191 126.626 31.8768 126.626 31.9922C126.576 31.9922 126.551 31.9592 126.551 31.8933C125.485 32.0087 124.877 32.157 124.727 32.3383V32.1653L124.377 32.4125H124.302V32.1653C124.002 32.2806 123.852 32.396 123.852 32.5114L123.602 32.3383C123.419 32.4537 123.278 32.5114 123.178 32.5114V32.4125C123.061 32.4784 122.969 32.5114 122.903 32.5114L123.003 32.6597V32.7586H122.903C122.853 32.7586 122.828 32.7257 122.828 32.6597L122.653 32.7586L122.228 32.5114C122.228 32.5773 122.136 32.6597 121.953 32.7586C121.853 32.6927 121.77 32.6597 121.703 32.6597V32.8328C122.103 32.8328 122.303 32.8905 122.303 33.0059L122.478 32.9317C122.595 32.9482 122.653 33.0059 122.653 33.1047C122.536 33.1542 122.453 33.1789 122.403 33.1789V33.352H122.753C122.753 33.4674 122.661 33.525 122.478 33.525L122.128 33.4509C122.028 33.5003 121.945 33.525 121.878 33.525C121.878 33.4756 121.845 33.4509 121.778 33.4509L121.878 33.2778C121.861 33.113 121.72 32.9976 121.453 32.9317L121.353 33.1047V33.1789L121.528 33.1047H121.628V33.2778C121.528 33.2778 121.412 33.3602 121.278 33.525L121.003 33.352H120.829C120.829 33.6322 120.745 33.7723 120.579 33.7723L120.404 33.525V33.4509H120.754V33.1789H120.679C120.395 33.3932 120.104 33.591 119.804 33.7723V33.8712C119.971 33.8712 120.054 33.8959 120.054 33.9453L120.229 33.8712H120.329V34.0442H119.804L119.454 33.6981V33.7723L119.279 33.6981H119.104C119.104 33.797 119.021 33.9701 118.854 34.2173H118.754L118.604 34.1184C118.604 34.1843 118.571 34.275 118.504 34.3904H118.929L119.379 34.2915V34.4645H119.104V34.6376H119.279V34.8107C119.246 34.8107 119.071 34.8354 118.754 34.8848V34.9837H118.929V35.1568H118.679V35.3299L119.204 35.231L119.379 35.3299C119.479 35.2639 119.562 35.231 119.629 35.231V35.5029C119.396 35.5029 119.279 35.5276 119.279 35.5771L118.854 35.5029H118.504C118.055 35.5029 117.446 35.47 116.68 35.404C116.58 35.47 116.497 35.5029 116.43 35.5029C116.247 35.3876 116.072 35.3299 115.905 35.3299C115.789 35.3299 115.672 35.3546 115.556 35.404C114.706 35.2887 112.898 34.8024 110.133 33.9453C108.567 33.6816 107.784 33.3685 107.784 33.0059C107.667 33.0059 107.609 32.8905 107.609 32.6597C107.725 32.6597 107.784 32.6103 107.784 32.5114C107.7 32.5114 107.617 32.4207 107.534 32.2394L107.709 31.9922C107.709 31.9427 107.559 31.7944 107.259 31.5472L107.359 31.3988C107.225 31.3988 107.142 31.2505 107.109 30.9538C107.159 30.9538 107.184 30.9291 107.184 30.8796C107.05 30.8796 106.967 30.7395 106.934 30.4593C106.984 30.4593 107.009 30.4264 107.009 30.3604C106.876 30.3604 106.792 30.1297 106.759 29.6682H106.834L106.759 29.4951C106.759 29.4622 106.842 29.3797 107.009 29.2479C106.959 29.1325 106.934 29.0501 106.934 29.0007C107.15 28.8193 107.317 28.7287 107.434 28.7287ZM129.825 29.7671C129.942 29.7836 130 29.8413 130 29.9401L129.825 30.0143C129.708 30.0143 129.65 29.9566 129.65 29.8412L129.825 29.7671ZM126.201 30.5335C126.201 30.6983 126.085 30.7807 125.852 30.7807V30.9538C126.218 30.8384 126.451 30.7807 126.551 30.7807V30.6077C126.418 30.6077 126.301 30.583 126.201 30.5335ZM128.8 30.5335L128.875 30.7066V30.7807H128.8C128.684 30.7807 128.626 30.7231 128.626 30.6077L128.8 30.5335ZM125.427 30.7066V30.7807C125.477 30.9785 125.593 31.0939 125.777 31.1269V31.0527C125.593 30.9044 125.502 30.789 125.502 30.7066H125.427ZM123.178 31.1269V31.2999H123.702V31.1269H123.178ZM128.451 31.3988V31.5472C128.234 31.5472 127.942 31.6049 127.576 31.7202V31.6461L127.401 31.7202H127.226V31.5472L127.676 31.473V31.5472C127.776 31.4977 128.034 31.4483 128.451 31.3988ZM123.602 31.8191C123.602 31.9345 123.519 31.9922 123.353 31.9922L122.903 31.8933V32.0664C123.136 32.0664 123.253 32.0993 123.253 32.1653C123.469 32.0499 123.727 31.9922 124.027 31.9922V31.8933L123.602 31.8191ZM120.928 32.8328V33.0059H121.103C121.187 33.0059 121.27 32.9234 121.353 32.7586H121.178C121.078 32.8081 120.995 32.8328 120.928 32.8328ZM124.127 32.6597L124.202 32.8328L124.027 32.9317H123.952V32.8328C123.969 32.7174 124.027 32.6597 124.127 32.6597ZM119.629 32.8328V33.0059H119.879V32.9317C119.829 32.9317 119.746 32.8987 119.629 32.8328ZM120.054 32.8328V33.0059H120.754V32.8328H120.054ZM123.353 32.8328C123.353 32.9646 123.203 33.0553 122.903 33.1047V32.9317L123.353 32.8328ZM119.704 33.4509V33.5992H119.979C119.979 33.5003 119.921 33.4509 119.804 33.4509H119.704ZM117.305 34.1184V34.2915H117.555V34.1184H117.305ZM117.98 34.1184V34.2173C118.046 34.2173 118.138 34.242 118.255 34.2915V34.1184H117.98ZM117.48 34.4645V34.5634H117.98L118.08 34.3904H117.98L117.48 34.4645Z" fill="#9E0003"/>
</svg>
