<svg width="89" height="32" viewBox="0 0 89 32" fill="none" xmlns="http://www.w3.org/2000/svg">
<path d="M10.4684 1.52964C10.9447 2.08031 11.3693 2.68196 11.742 3.33461C12.1355 3.96686 12.4668 4.68069 12.7361 5.4761C13.026 6.25112 13.2434 7.12811 13.3884 8.10708C13.5334 9.06565 13.6058 10.1466 13.6058 11.3499C13.6058 13.8381 13.2952 16.1938 12.6739 18.4168C12.0527 20.6195 11.2347 22.6182 10.2199 24.413C9.20517 26.2078 8.04546 27.7476 6.74079 29.0325C5.45683 30.3378 4.15216 31.327 2.82678 32C2.53686 31.8776 2.22622 31.6635 1.89488 31.3576C1.58424 31.0516 1.29431 30.7253 1.0251 30.3786C0.735171 30.0319 0.497017 29.7055 0.310636 29.3996C0.124254 29.0937 0.0207091 28.8795 0 28.7572C1.63601 28.4716 3.13742 27.7374 4.50422 26.5545C5.89172 25.3716 7.08249 23.9337 8.07652 22.2409C9.09127 20.5481 9.87821 18.7126 10.4374 16.7342C11.0172 14.7559 11.3071 12.8286 11.3071 10.9522C11.3071 10.1364 11.2761 9.30019 11.2139 8.44359C11.1725 7.5666 11.1 6.7202 10.9965 5.9044C10.893 5.08859 10.7583 4.34417 10.5927 3.67113C10.4477 2.97769 10.282 2.39643 10.0957 1.92734L10.4684 1.52964Z" fill="white"/>
<path d="M14.5149 20.6807C14.5149 19.5182 14.7531 18.3964 15.2294 17.3155C15.7264 16.2142 16.3684 15.2454 17.1553 14.4092C17.963 13.5526 18.8742 12.8693 19.8889 12.3595C20.9244 11.8292 21.9909 11.5641 23.0885 11.5641C24.1653 11.5641 24.9937 11.8292 25.5736 12.3595C26.1534 12.8897 26.4433 13.6444 26.4433 14.6233C26.4433 15.0924 26.3709 15.5513 26.2259 16C26.1016 16.4283 25.9256 16.8158 25.6978 17.1625C25.4907 17.5092 25.2422 17.7948 24.9523 18.0191C24.6624 18.2231 24.3724 18.325 24.0825 18.325C23.834 18.325 23.5751 18.2537 23.3059 18.1109C23.0574 17.9477 22.8503 17.7438 22.6846 17.499C24.0722 16.2549 24.7659 15.123 24.7659 14.1033C24.7659 13.5118 24.5278 13.2161 24.0514 13.2161C23.6373 13.2161 23.1195 13.4098 22.4983 13.7973C21.877 14.1848 21.2764 14.6947 20.6966 15.327C19.8061 16.3059 19.1227 17.3971 18.6464 18.6004C18.1908 19.7833 17.963 21.0274 17.963 22.3327C17.963 23.9847 18.3357 24.9739 19.0813 25.3002C19.3919 25.2594 19.7543 25.1676 20.1685 25.0249C20.5827 24.8821 21.0279 24.6985 21.5042 24.4742C21.9805 24.2294 22.4672 23.9541 22.9642 23.6482C23.4819 23.3423 23.979 23.0159 24.4553 22.6692C24.5381 22.7304 24.6106 22.8222 24.6727 22.9446C24.7348 23.0669 24.7659 23.1791 24.7659 23.2811C24.4139 23.7094 24.01 24.1275 23.5544 24.5354C23.0988 24.9433 22.6225 25.3206 22.1255 25.6673C21.6285 25.9936 21.1418 26.269 20.6655 26.4933C20.2099 26.7381 19.8061 26.891 19.454 26.9522C18.7706 26.891 18.1287 26.6769 17.5281 26.3098C16.9275 25.963 16.3995 25.5041 15.9439 24.9331C15.509 24.362 15.1569 23.7094 14.8877 22.9751C14.6392 22.2409 14.5149 21.4761 14.5149 20.6807Z" fill="white"/>
<path d="M35.8221 25.392C35.4286 25.0656 35.1594 24.6577 35.0144 24.1683C34.8902 23.6788 34.8281 23.2607 34.8281 22.914C34.8281 22.4857 34.8798 22.1185 34.9834 21.8126C34.9005 21.8126 34.7142 21.9758 34.4242 22.3021C34.1343 22.6284 33.8133 23.0159 33.4613 23.4646C33.1299 23.9133 32.7986 24.3518 32.4672 24.7801C32.1359 25.2084 31.8874 25.5245 31.7217 25.7285C31.4525 26.014 31.1936 26.2384 30.9451 26.4015C30.7173 26.5647 30.5309 26.6565 30.386 26.6769C30.0546 26.6565 29.7026 26.5851 29.3298 26.4627C28.9778 26.3607 28.6361 26.2078 28.3047 26.0038C27.9941 25.7999 27.7145 25.5551 27.466 25.2696C27.2382 24.9841 27.0829 24.6577 27.0001 24.2906C27.0001 23.7196 27.0104 23.2505 27.0311 22.8834C27.0725 22.5163 27.145 22.1185 27.2486 21.6902C27.4349 20.9152 27.7042 20.0382 28.0562 19.0593C28.429 18.0803 28.8535 17.1217 29.3298 16.1836C29.8061 15.225 30.3342 14.3378 30.9141 13.522C31.5146 12.6858 32.1462 12.0331 32.8089 11.5641C32.9953 11.5641 33.2128 11.5844 33.4613 11.6252C33.7098 11.6456 33.9583 11.6966 34.2068 11.7782C34.476 11.8598 34.7245 11.9618 34.9523 12.0841C35.2008 12.1861 35.4079 12.3289 35.5736 12.5124C35.3872 12.7164 34.9109 13.3996 34.1447 14.5621C33.3991 15.7247 32.5604 17.3971 31.6285 19.5793C31.525 19.8037 31.4007 20.13 31.2558 20.5583C31.1108 20.9866 30.9658 21.4353 30.8209 21.9044C30.6759 22.3735 30.5517 22.8324 30.4481 23.2811C30.3653 23.7298 30.3239 24.0867 30.3239 24.3518C30.3239 24.515 30.3446 24.6373 30.386 24.7189C30.4481 24.8005 30.4999 24.8617 30.5413 24.9025C30.8519 24.7801 31.2454 24.4436 31.7217 23.8929C32.198 23.3423 32.8607 22.4959 33.7098 21.3537C33.9169 21.0682 34.155 20.7419 34.4242 20.3748C34.7142 20.0076 35.0041 19.6201 35.294 19.2122C35.5839 18.7839 35.8532 18.3454 36.1017 17.8967C36.3709 17.4481 36.5883 16.9994 36.754 16.5507C36.8368 16.3059 36.9404 16.0204 37.0646 15.6941C37.2096 15.3474 37.3753 14.9904 37.5617 14.6233C37.7688 14.2562 37.9966 13.8891 38.2451 13.522C38.5143 13.1345 38.8249 12.7776 39.177 12.4512C39.4462 12.4512 39.7361 12.4818 40.0467 12.543C40.3574 12.6042 40.6473 12.6858 40.9165 12.7878C41.2065 12.8693 41.455 12.9713 41.662 13.0937C41.8691 13.1957 42.0245 13.3078 42.128 13.4302C41.7552 14.3276 41.3411 15.2148 40.8855 16.0918C40.4299 16.9688 40.0053 17.8356 39.6119 18.6922C39.2184 19.5284 38.887 20.3646 38.6178 21.2008C38.3486 22.037 38.214 22.8528 38.214 23.6482C38.214 24.0765 38.2451 24.4538 38.3072 24.7801C38.39 25.086 38.4729 25.3512 38.5557 25.5755C38.6385 25.7795 38.711 25.9528 38.7731 26.0956C38.856 26.2384 38.8974 26.3607 38.8974 26.4627C38.8974 26.4831 38.8767 26.5137 38.8353 26.5545C38.8146 26.5749 38.7939 26.5851 38.7731 26.5851C38.6282 26.5851 38.4418 26.5545 38.214 26.4933C37.9862 26.4321 37.7273 26.3403 37.4374 26.218C37.1682 26.116 36.8886 25.9936 36.5987 25.8509C36.3295 25.7081 36.0706 25.5551 35.8221 25.392Z" fill="white"/>
<path d="M47.7549 11.2275C48.2933 11.3907 48.8007 11.7578 49.277 12.3289C49.7533 12.8795 50.1054 13.4914 50.3331 14.1644C50.1054 14.7151 49.7533 15.3779 49.277 16.153C48.8007 16.928 48.3244 17.7234 47.8481 18.5392C47.3718 19.3346 46.9369 20.0994 46.5434 20.8337C46.1706 21.5475 45.9532 22.1389 45.8911 22.608C46.2224 22.2613 46.5848 21.8636 46.9783 21.4149C47.3925 20.9458 47.7859 20.4869 48.1587 20.0382C48.5522 19.5692 48.9146 19.1511 49.2459 18.7839C49.5773 18.3964 49.8361 18.1109 50.0225 17.9273C50.416 17.5194 50.8819 17.0504 51.4204 16.5201C51.9588 15.9694 52.518 15.4595 53.0978 14.9904C53.6984 14.501 54.2989 14.0931 54.8995 13.7667C55.5001 13.42 56.0488 13.2467 56.5459 13.2467C57.0843 13.2467 57.5295 13.4302 57.8816 13.7973C58.2544 14.144 58.5443 14.5112 58.7514 14.8987C58.7514 14.9395 58.6685 15.0006 58.5029 15.0822C58.3579 15.1434 58.1405 15.3372 57.8505 15.6635C57.5606 16.0306 57.2293 16.5405 56.8565 17.1931C56.5044 17.8254 56.1524 18.5188 55.8003 19.2734C55.469 20.0076 55.1894 20.7623 54.9616 21.5373C54.7338 22.3123 54.6199 23.0159 54.6199 23.6482C54.6199 24.1581 54.682 24.4844 54.8063 24.6272C54.9513 24.7699 55.148 24.8413 55.3965 24.8413C55.6243 24.8413 55.8625 24.7903 56.111 24.6883C56.3595 24.5864 56.5562 24.5354 56.7012 24.5354C56.784 24.5762 56.8461 24.6679 56.8876 24.8107C56.9497 24.9331 56.9808 25.0453 56.9808 25.1472C56.8151 25.29 56.6183 25.4328 56.3905 25.5755C56.1627 25.7183 55.9246 25.8509 55.6761 25.9732C55.4276 26.0956 55.1791 26.1976 54.9306 26.2792C54.7028 26.3607 54.4957 26.4015 54.3093 26.4015C53.7087 26.4015 53.2117 26.3098 52.8182 26.1262C52.4455 25.963 52.1452 25.7387 51.9174 25.4532C51.7103 25.1676 51.5653 24.8311 51.4825 24.4436C51.3997 24.0357 51.3582 23.6074 51.3582 23.1587C51.3582 22.914 51.379 22.6386 51.4204 22.3327C51.4618 22.0268 51.5446 21.6699 51.6689 21.2619C51.7931 20.8337 51.9692 20.334 52.197 19.7629C52.4248 19.1714 52.7147 18.4678 53.0667 17.652C53.0253 17.652 52.7458 17.7948 52.228 18.0803C51.7103 18.3658 51.1512 18.8043 50.5506 19.3958C49.5773 20.3136 48.6971 21.2212 47.9102 22.1185C47.144 23.0159 46.357 24.0153 45.5494 25.1166C45.0938 25.7489 44.6899 26.2792 44.3379 26.7075C44.0065 27.1562 43.7166 27.4519 43.4681 27.5946C43.0332 27.3499 42.7122 27.0032 42.5051 26.5545C42.298 26.1262 42.1427 25.6775 42.0392 25.2084C42.0392 24.8209 42.091 24.3314 42.1945 23.74C42.3188 23.1485 42.4741 22.4959 42.6605 21.782C42.8675 21.0478 43.116 20.283 43.406 19.4876C43.6959 18.6922 44.0169 17.8968 44.3689 17.1013C45.1559 15.3066 45.8704 13.8993 46.5123 12.8795C47.175 11.8598 47.5892 11.3091 47.7549 11.2275Z" fill="white"/>
<path d="M70.215 13.7055C70.4221 13.7055 70.6603 13.7463 70.9295 13.8279C71.2194 13.8891 71.4783 13.9809 71.7061 14.1033C71.9339 14.2052 72.1203 14.3174 72.2652 14.4398C72.4309 14.5621 72.5137 14.6743 72.5137 14.7763C72.0996 15.6329 71.7164 16.4997 71.3644 17.3767C71.0123 18.2333 70.7121 19.0593 70.4635 19.8547C70.215 20.6501 70.0183 21.3945 69.8733 22.088C69.7491 22.7814 69.687 23.383 69.687 23.8929C69.687 24.464 69.7491 24.9433 69.8733 25.3308C69.9976 25.6979 70.2047 25.963 70.4946 26.1262C70.2461 26.2894 69.9251 26.4219 69.5316 26.5239C69.1382 26.6259 68.7861 26.6769 68.4755 26.6769C67.3572 26.6769 66.798 25.9222 66.798 24.413C66.798 23.2505 67.1915 21.6597 67.9785 19.6405C67.5643 20.5787 67.088 21.4659 66.5495 22.3021C66.0111 23.1179 65.4623 23.8419 64.9032 24.4742C64.344 25.1064 63.7745 25.6265 63.1947 26.0344C62.6355 26.4219 62.1178 26.6565 61.6415 26.7381C60.8753 26.6973 60.254 26.3403 59.7777 25.6673C59.3014 24.9739 59.0632 24.0969 59.0632 23.0363C59.0632 21.8942 59.3117 20.6909 59.8087 19.4264C60.3058 18.1619 60.9374 16.9892 61.7036 15.9082C62.4906 14.8273 63.3396 13.9299 64.2508 13.2161C65.162 12.4818 66.0422 12.0943 66.8912 12.0535C67.0983 12.1147 67.3261 12.2371 67.5746 12.4207C67.8439 12.6042 68.0924 12.8184 68.3202 13.0631C68.5687 13.3078 68.7758 13.5628 68.9414 13.8279C69.1071 14.0727 69.2003 14.2868 69.221 14.4704C68.3926 14.5927 67.5332 14.9904 66.6427 15.6635C65.7729 16.3365 64.9757 17.1523 64.2508 18.1109C63.5467 19.0491 62.9669 20.0586 62.5113 21.1396C62.0557 22.2205 61.8279 23.2301 61.8279 24.1683C61.8279 24.5558 61.9728 24.8005 62.2628 24.9025C62.8633 24.7801 63.5571 24.2804 64.344 23.4034C65.131 22.5061 66.0836 21.1294 67.2019 19.2734C67.409 18.9063 67.6368 18.4984 67.8853 18.0497C68.1545 17.601 68.4237 17.1319 68.6929 16.6424C68.9621 16.153 69.221 15.6635 69.4695 15.174C69.7387 14.6641 69.9872 14.1746 70.215 13.7055Z" fill="white"/>
<path d="M78.5316 30.4704C78.0553 29.9197 77.6204 29.318 77.2269 28.6654C76.8541 28.0331 76.5228 27.3193 76.2329 26.5239C75.9637 25.7489 75.7566 24.8821 75.6116 23.9235C75.4666 22.9446 75.3942 21.8534 75.3942 20.6501C75.3942 18.1619 75.7048 15.8164 76.3261 13.6138C76.9473 11.3907 77.7653 9.39197 78.7801 7.61759C79.7948 5.82282 80.9442 4.27279 82.2281 2.9675C83.5328 1.66221 84.8478 0.67304 86.1732 0C86.4631 0.122372 86.7634 0.336521 87.0741 0.642448C87.4054 0.948375 87.7057 1.2747 87.9749 1.62142C88.2648 1.96813 88.503 2.29446 88.6894 2.60038C88.8757 2.90631 88.9793 3.12046 89 3.24283C87.364 3.52836 85.8522 4.26259 84.4647 5.44551C83.0979 6.62843 81.9071 8.06628 80.8924 9.75908C79.8984 11.4519 79.1114 13.2874 78.5316 15.2658C77.9724 17.2441 77.6929 19.1714 77.6929 21.0478C77.6929 21.8636 77.7136 22.71 77.755 23.587C77.8171 24.4436 77.9 25.2798 78.0035 26.0956C78.107 26.9114 78.2313 27.666 78.3763 28.3595C78.5419 29.0529 78.718 29.624 78.9043 30.0727L78.5316 30.4704Z" fill="white"/>
</svg>
