<svg width="24" height="24" viewBox="0 0 24 24" fill="none" xmlns="http://www.w3.org/2000/svg">
<path d="M12 20.5C13.81 20.5 15.545 20.321 17.153 19.993C19.163 19.583 20.167 19.379 21.083 18.201C22 17.022 22 15.669 22 12.963V11.037C22 8.33104 22 6.97704 21.083 5.79904C20.167 4.62104 19.163 4.41604 17.153 4.00704C15.4565 3.66699 13.7303 3.49715 12 3.50004C10.19 3.50004 8.455 3.67904 6.847 4.00704C4.837 4.41704 3.833 4.62104 2.917 5.79904C2 6.97804 2 8.33104 2 11.037V12.963C2 15.669 2 17.023 2.917 18.201C3.833 19.379 4.837 19.584 6.847 19.993C8.455 20.321 10.19 20.5 12 20.5Z" stroke="#FDFDFD" stroke-width="1.5" stroke-linecap="round" stroke-linejoin="round"/>
<path d="M15.962 12.313C15.814 12.919 15.024 13.353 13.445 14.224C11.727 15.171 10.868 15.644 10.173 15.461C9.94139 15.4012 9.72501 15.2932 9.538 15.144C9 14.709 9 13.806 9 12C9 10.194 9 9.29104 9.538 8.85604C9.72 8.70904 9.938 8.60004 10.173 8.53904C10.868 8.35604 11.727 8.82904 13.445 9.77604C15.025 10.646 15.814 11.081 15.962 11.687C16.012 11.893 16.012 12.107 15.962 12.313Z" stroke="#FDFDFD" stroke-width="1.5" stroke-linecap="round" stroke-linejoin="round"/>
</svg>
